<svg xmlns="http://www.w3.org/2000/svg" width="113" height="24" fill="none"><path fill="#1E1E1E" d="M11.813 23.98c6.45 0 11.14-4.514 11.14-11.225 0-6.71-4.69-11.256-11.14-11.256C5.178 1.5.642 6.231.642 12.755c0 6.495 4.536 11.226 11.17 11.226Zm.03-4.05c-3.95 0-6.696-3.185-6.696-7.175 0-3.989 2.747-7.174 6.697-7.174 3.765 0 6.604 3.03 6.604 7.174 0 4.113-2.84 7.175-6.604 7.175ZM35.862.973v9.37h-.093c-1.11-1.298-2.685-1.948-4.536-1.948-4.043 0-7.098 3.247-7.098 7.824 0 4.67 3.055 7.762 7.221 7.762 2.006 0 3.58-.742 4.63-2.072h.06v1.824h3.858V.973h-4.042Zm-3.765 19.39c-2.253 0-3.858-1.67-3.858-4.113 0-2.598 1.697-4.237 3.858-4.237 2.314 0 3.98 1.825 3.98 4.237 0 2.474-1.758 4.113-3.98 4.113ZM53.335.973v9.37h-.093c-1.11-1.298-2.684-1.948-4.536-1.948-4.043 0-7.098 3.247-7.098 7.824 0 4.67 3.055 7.762 7.221 7.762 2.006 0 3.58-.742 4.63-2.072h.061v1.824h3.857V.973h-4.042Zm-3.765 19.39c-2.253 0-3.858-1.67-3.858-4.113 0-2.598 1.698-4.237 3.858-4.237 2.314 0 3.98 1.825 3.98 4.237 0 2.474-1.758 4.113-3.98 4.113ZM66.849 23.733h4.35v-8.566h8.981v8.566h4.351V1.777h-4.35v9.494H71.2V1.777h-4.351v21.956ZM89.368 4.967c1.389 0 2.53-1.113 2.53-2.474 0-1.36-1.141-2.474-2.53-2.474-1.358 0-2.5 1.114-2.5 2.474s1.142 2.474 2.5 2.474ZM87.33 23.733h4.043V6.793H87.33v16.94ZM94.287 23.733h4.042V.973h-4.042v22.76ZM101.242 23.733h4.043V.973h-4.043v22.76Z"/><path fill="#E05E41" d="M110.142 23.98c1.358 0 2.5-1.082 2.5-2.442 0-1.361-1.142-2.474-2.5-2.474a2.485 2.485 0 0 0-2.5 2.474c0 1.36 1.111 2.443 2.5 2.443Z"/></svg>
