<svg width="194" height="50" xmlns="http://www.w3.org/2000/svg">
  <g fill="none" fill-rule="evenodd">
    <g transform="translate(-107.000000, -2322.000000) translate(4.000000, 2299.000000) translate(104.000000, 24.000000) translate(8.000000, 0.000000)">
      <path d="M58.112 32.8c1.68 0 3.04-.196 4.08-.588 1.04-.392 1.836-.94 2.388-1.644a5.816 5.816 0 0 0 1.116-2.448c.048-.24.088-.472.12-.696.032-.224.048-.44.048-.648 0-.832-.272-1.552-.816-2.16-.544-.608-1.512-1.12-2.904-1.536-.928-.288-1.592-.512-1.992-.672-.4-.16-.6-.392-.6-.696 0-.096.008-.168.024-.216.112-.464.428-.752.948-.864.52-.112 1.132-.168 1.836-.168.608 0 1.24.064 1.896.192a9.496 9.496 0 0 1 2.016.648l.792-3.744c-.512-.176-1.204-.336-2.076-.48a15.816 15.816 0 0 0-2.58-.216c-2.256 0-3.98.396-5.172 1.188-1.192.792-1.948 1.948-2.268 3.468-.048.208-.08.404-.096.588a6.234 6.234 0 0 0-.024.54c0 .88.28 1.596.84 2.148.56.552 1.384 1.02 2.472 1.404.976.336 1.712.6 2.208.792.496.192.744.488.744.888 0 .096-.008.176-.024.24-.112.48-.384.788-.816.924-.432.136-1.048.204-1.848.204a9.89 9.89 0 0 1-2.4-.312 10.44 10.44 0 0 1-2.232-.816L53 31.84c.576.304 1.312.54 2.208.708.896.168 1.864.252 2.904.252Zm15.48 0c2.48 0 4.424-.488 5.832-1.464 1.408-.976 2.336-2.552 2.784-4.728l2.016-9.504h-4.512l-1.92 9.024c-.208 1.024-.568 1.752-1.08 2.184-.512.432-1.28.648-2.304.648-.832 0-1.432-.128-1.8-.384-.368-.256-.552-.68-.552-1.272 0-.336.048-.728.144-1.176l1.92-9.024h-4.512l-1.992 9.36c-.096.448-.144.88-.144 1.296 0 .96.236 1.82.708 2.58s1.164 1.36 2.076 1.8c.912.44 2.024.66 3.336.66Zm13.92-.24.864-4.152h3.648c1.28 0 2.364-.24 3.252-.72a5.869 5.869 0 0 0 2.16-1.992c.552-.848.94-1.816 1.164-2.904.096-.464.144-.904.144-1.32 0-1.264-.416-2.308-1.248-3.132-.832-.824-2.032-1.236-3.6-1.236h-7.632L83 32.56h4.512Zm3.936-7.608H89.12l.936-4.392h2.448c.592 0 1.004.12 1.236.36.232.24.348.576.348 1.008 0 .128-.008.264-.024.408-.016.144-.04.296-.072.456-.128.64-.38 1.16-.756 1.56-.376.4-.972.6-1.788.6Zm16.344 7.608 1.704-8.04h2.496l.888-3.336h-2.688l.144-.648c.096-.464.276-.8.54-1.008.264-.208.684-.312 1.26-.312.256 0 .496.024.72.072.224.048.44.112.648.192l.624-2.928a6.457 6.457 0 0 0-1.296-.408A8.139 8.139 0 0 0 111.2 16c-1.072 0-1.972.192-2.7.576a4.495 4.495 0 0 0-1.728 1.572c-.424.664-.732 1.428-.924 2.292l-.168.744h-1.464l-.696 3.336h1.464l-1.704 8.04h4.512Zm10.296.24c2.288 0 4.088-.504 5.4-1.512 1.312-1.008 2.168-2.48 2.568-4.416.064-.272.108-.532.132-.78.024-.248.036-.492.036-.732 0-1.376-.472-2.456-1.416-3.24-.944-.784-2.344-1.176-4.2-1.176-2.32 0-4.112.508-5.376 1.524-1.264 1.016-2.104 2.484-2.52 4.404a5.84 5.84 0 0 0-.132.792 7.974 7.974 0 0 0-.036.744c0 1.44.488 2.532 1.464 3.276.976.744 2.336 1.116 4.08 1.116Zm.696-3.288c-.576 0-.988-.112-1.236-.336-.248-.224-.372-.584-.372-1.08 0-.336.048-.744.144-1.224.192-.912.492-1.58.9-2.004.408-.424.972-.636 1.692-.636.592 0 1.02.12 1.284.36s.396.616.396 1.128c0 .336-.048.72-.144 1.152-.192.928-.5 1.6-.924 2.016-.424.416-1.004.624-1.74.624Zm12.288 3.048 1.56-7.392a8.18 8.18 0 0 1 1.224-.396c.48-.12.976-.22 1.488-.3.512-.08.976-.136 1.392-.168l.696-3.36c-.736.048-1.488.184-2.256.408-.768.224-1.416.472-1.944.744l.072-.912h-4.344l-2.4 11.376h4.512Zm21.6 0 .72-3.456h-6.96l2.544-12h-4.512L141.2 32.56h11.472Zm9.624-12.888.696-3.264h-4.872l-.696 3.264h4.872ZM159.56 32.56l2.4-11.376h-5.784l-1.08 3.288h1.656l-1.704 8.088h4.512Zm7.32 0 1.704-8.04h2.496l.888-3.336h-2.688l.144-.648c.096-.464.276-.8.54-1.008.264-.208.684-.312 1.26-.312.256 0 .496.024.72.072.224.048.44.112.648.192l.624-2.928a6.457 6.457 0 0 0-1.296-.408 8.139 8.139 0 0 0-1.632-.144c-1.072 0-1.972.192-2.7.576a4.495 4.495 0 0 0-1.728 1.572c-.424.664-.732 1.428-.924 2.292l-.168.744h-1.464l-.696 3.336h1.464l-1.704 8.04h4.512Zm10.392.24c2.016 0 3.632-.264 4.848-.792l.576-2.712c-.448.16-1.012.3-1.692.42-.68.12-1.348.18-2.004.18-1.28 0-2.152-.132-2.616-.396-.464-.264-.704-.692-.72-1.284h7.896l.432-1.992c.048-.208.08-.408.096-.6s.024-.376.024-.552c0-1.232-.432-2.228-1.296-2.988-.864-.76-2.08-1.14-3.648-1.14-2.128 0-3.792.54-4.992 1.62-1.2 1.08-1.992 2.524-2.376 4.332a5.142 5.142 0 0 0-.132.768 7.738 7.738 0 0 0-.036.72c0 1.456.516 2.556 1.548 3.3 1.032.744 2.396 1.116 4.092 1.116Zm2.928-7.032h-4.008c.128-.64.384-1.124.768-1.452.384-.328.968-.492 1.752-.492.592 0 1.008.104 1.248.312.24.208.36.48.36.816 0 .064-.004.128-.012.192s-.02.136-.036.216l-.072.408Z" fill="#FFF" fill-rule="nonzero"/>
      <circle fill="#FFF" cx="20" cy="24" r="20"/>
      <g transform="translate(0.000000, 4.000000)">
        <ellipse fill="#FFF" cx="20.113" cy="20.035" rx="20.113" ry="20.035"/>
        <g fill="#000" fill-rule="nonzero">
          <path d="M20-.153C8.87-.153-.154 8.87-.154 20-.154 31.13 8.87 40.153 20 40.153c11.13 0 20.154-9.023 20.154-20.153C40.154 8.87 31.13-.153 20-.153Zm0 .306C30.96.153 39.846 9.039 39.846 20c0 10.961-8.885 19.847-19.846 19.847C9.04 39.847.154 30.961.154 20 .154 9.039 9.039.153 20 .153Z"/>
          <path d="M20 5.378C11.924 5.378 5.378 11.925 5.378 20S11.924 34.622 20 34.622 34.622 28.075 34.622 20 28.075 5.378 20 5.378Zm0 .119c8.01 0 14.503 6.493 14.503 14.503S28.01 34.503 20 34.503 5.497 28.01 5.497 20 11.99 5.497 20 5.497Z"/>
        </g>
        <g fill="#322C2C" fill-rule="nonzero">
          <path d="M6.47 11.313a.544.544 0 0 1 .276.344c.04.148.013.308-.079.48a.589.589 0 0 1-.098.127 3.105 3.105 0 0 0-.229.245.302.302 0 0 1-.136.087.583.583 0 0 1-.303 0 1.355 1.355 0 0 0-.285-.035.447.447 0 0 1-.114.01.138.138 0 0 1-.078-.065.13.13 0 0 1-.02-.091.27.27 0 0 1 .03-.068c.038-.068.094-.147.166-.237.073-.09.119-.136.14-.14.02-.004.1.02.238.072.128.048.208.058.242.03a.066.066 0 0 0 .02-.022c.022-.037.009-.087-.038-.148a.608.608 0 0 0-.189-.157c-.17-.095-.314-.106-.43-.033-.269.17-.487.272-.654.307a.7.7 0 0 1-.545-.104 1.071 1.071 0 0 1-.356-.41c-.096-.18-.126-.332-.091-.454.015-.05.136-.163.361-.338.054-.045.108-.09.164-.134a.383.383 0 0 1 .182-.082c.1-.016.234.023.403.117l.137.08c.051.032.088.054.11.066a.423.423 0 0 0 .08.018c.026.002.05.01.07.024.085.052.113.115.084.19a.66.66 0 0 1-.167.192c-.103.096-.185.148-.246.155a.18.18 0 0 1-.062-.027 4.554 4.554 0 0 1-.195-.122 4.46 4.46 0 0 0-.221-.137c-.084-.047-.131-.06-.14-.04-.03.063-.015.138.046.224.06.087.144.16.25.22.177.098.332.117.465.055l.422-.227a.827.827 0 0 1 .349-.11c.125-.002.272.044.44.138ZM6.298 9.478a.187.187 0 0 1 .067.094c.012.038.01.07-.007.093a.808.808 0 0 0-.15.183l1.1.751a.49.49 0 0 1 .153.052c.054.037.057.093.01.17-.025.04-.09.1-.197.18-.115.087-.19.124-.227.11-.016-.006-.039-.031-.07-.076a.347.347 0 0 0-.078-.09l-.986-.674-.065.094c-.025.035-.086.058-.184.067-.097.01-.165.001-.202-.024a.129.129 0 0 1-.053-.083.117.117 0 0 1 .015-.094l.137-.2-.25-.17a.238.238 0 0 1-.149-.041c-.039-.027-.051-.06-.038-.1a.405.405 0 0 1 .042-.073c.047-.068.113-.14.198-.218a.618.618 0 0 1 .188-.134.061.061 0 0 1 .052.007c.019.013.037.047.054.102.016.055.032.088.045.1l.15.103.062-.09c.012-.018.073-.034.18-.047.108-.014.175-.011.203.008ZM8.77 8.982c.023.022.035.05.036.083a.099.099 0 0 1-.034.082c-.21.186-.352.27-.424.25a.06.06 0 0 1-.025-.012.063.063 0 0 1-.018-.036.098.098 0 0 0-.015-.037.074.074 0 0 1-.013-.029.54.54 0 0 0-.088-.079c-.002.034.013.1.044.197a.858.858 0 0 1 .058.244.348.348 0 0 1-.083.252.248.248 0 0 1-.152.079 1.74 1.74 0 0 1-.186.014c-.163.003-.251.005-.266.004a.304.304 0 0 1-.182-.062.222.222 0 0 1-.036-.04c-.123-.16-.18-.383-.17-.667.008-.206.053-.468.137-.786-.055-.047-.102-.063-.14-.049-.026.009-.058.085-.097.229-.039.143-.058.25-.06.32.003.026.002.064 0 .115-.008.043-.025.074-.053.092a.623.623 0 0 1-.195.042c-.11.013-.175.014-.199.003-.058-.025-.081-.07-.07-.135 0-.003.019-.046.057-.128l.06-.277c.05-.187.113-.329.186-.425.032-.04.09-.068.176-.08.078-.012.155-.023.232-.036.077-.012.155-.027.232-.044.094-.014.164-.002.208.036l.971.827a.32.32 0 0 1 .11.053Zm-1.1-.229a.725.725 0 0 0-.036.342l.048.27c.005.067.023.14.053.22.03.081.06.133.087.156.013.012.025.013.033.002.031-.036.022-.182-.026-.438s-.101-.44-.16-.552ZM10.051 7.614a.33.33 0 0 1 .107.076c.046.05.058.101.036.154a.242.242 0 0 1-.055.065 1.28 1.28 0 0 1-.226.158c-.094.053-.157.08-.189.078a.067.067 0 0 1-.042-.02c-.017-.019-.031-.06-.043-.123-.013-.063-.027-.104-.044-.122-.596-.655-.903-.978-.92-.971-.032.013-.02.14.033.38.055.253.122.422.2.506l.426.464a.147.147 0 0 1 .106.05c.058.063.069.132.034.206a.093.093 0 0 1-.026.033c-.044.04-.12.09-.225.148-.105.058-.169.085-.191.081a.098.098 0 0 1-.056-.03C8.96 8.73 8.952 8.7 8.95 8.66c-.002-.04-.007-.064-.013-.07l-1.06-1.154a.148.148 0 0 0-.069-.034c-.033-.01-.053-.024-.062-.043-.022-.044-.017-.09.015-.138.02-.03.092-.078.212-.143.131-.07.214-.096.25-.077.023.012.046.042.068.089a.91.91 0 0 0 .064.124.273.273 0 0 0 .064.05 1.048 1.048 0 0 1-.098-.316c-.017-.128.002-.216.057-.266a.794.794 0 0 1 .273-.142c.125-.043.21-.055.251-.036.144.064.527.434 1.15 1.11ZM10.246 4.553a.323.323 0 0 1 .054.122.77.77 0 0 0 .038.11l1.26 1.8c.042.06.073.094.092.103.062.028.093.055.093.08.001.02-.018.044-.056.071-.043.03-.113.066-.212.11l-.176.077c-.036.02-.076.014-.119-.016a.154.154 0 0 1-.027-.034 3.337 3.337 0 0 1-.206-.358c.018.12.036.238.056.356.015.15-.005.238-.06.262-.415.18-.753.083-1.013-.288a1.67 1.67 0 0 1-.278-.767c-.035-.29-.008-.514.082-.672a.142.142 0 0 1 .043-.05c.046-.033.166-.032.36.003l-.374-.535a.481.481 0 0 0-.08-.062.322.322 0 0 1-.081-.068c-.027-.039-.015-.076.037-.112a.935.935 0 0 1 .226-.1c.069-.02.135-.04.2-.061.056-.02.102-.01.14.03Zm.016 1.047c-.071.118-.094.284-.069.5.026.214.086.389.18.523.11.156.23.2.362.13.07-.038-.088-.422-.473-1.153ZM13.17 3.755c.024.014.041.03.05.05.01.02.01.05.001.09-.01.04-.012.063-.008.071l.685 1.408c.006.012.023.03.05.054a.217.217 0 0 1 .053.057c.017.037-.001.078-.056.125-.029.023-.11.049-.244.076-.146.03-.232.033-.26.006-.023-.021-.037-.058-.043-.11a.415.415 0 0 0-.022-.124.496.496 0 0 0-.048-.074c.019.116.02.226.004.331-.022.125-.066.204-.133.236a.81.81 0 0 1-.301.06c-.132.006-.216-.006-.25-.036-.12-.102-.381-.566-.783-1.392a.326.326 0 0 1-.08-.103c-.03-.062-.028-.116.008-.16a.239.239 0 0 1 .072-.046 1.28 1.28 0 0 1 .261-.088c.106-.024.174-.03.205-.018a.067.067 0 0 1 .034.032c.011.022.014.065.007.13-.006.064-.004.107.007.129.383.797.584 1.195.603 1.193.033-.004.06-.131.078-.383.019-.253.003-.43-.047-.533l-.276-.566a.147.147 0 0 1-.086-.078c-.038-.079-.03-.149.025-.21a.093.093 0 0 1 .034-.024c.054-.026.14-.052.258-.078.118-.026.185-.034.202-.025ZM15.18 5.122a.145.145 0 0 1-.056.036c-.055.018-.17-.016-.344-.102l.206.616a.495.495 0 0 0 .06.081.316.316 0 0 1 .058.089c.015.045-.008.077-.068.097a.966.966 0 0 1-.249.033 6.931 6.931 0 0 1-.206 0c-.058.003-.1-.02-.126-.068a.324.324 0 0 1-.017-.132.787.787 0 0 0-.005-.116l-.694-2.078a.36.36 0 0 0-.061-.129c-.05-.042-.072-.076-.066-.102.003-.02.027-.037.074-.053.05-.016.127-.031.231-.045.121-.014.186-.022.195-.025.037-.008.074.009.108.049.005.006.01.02.019.044.029.087.06.221.091.402l.053-.354c.025-.153.068-.233.13-.242.447-.051.743.139.888.57.081.246.098.514.05.805-.05.292-.14.5-.271.624Zm-.567-1.461c-.08.017-.038.43.126 1.238.102-.093.171-.246.208-.459.037-.213.029-.397-.023-.553-.06-.18-.164-.256-.31-.226ZM17.729 4.523a.146.146 0 0 1-.06.027c-.059.01-.166-.042-.324-.155l.105.64c.005.018.02.048.045.09.025.043.04.075.043.097.008.047-.02.075-.082.085a.974.974 0 0 1-.25-.007A6.9 6.9 0 0 1 17 5.268c-.058-.006-.095-.035-.113-.087a.323.323 0 0 1 .004-.134.762.762 0 0 0 .014-.114l-.353-2.163a.359.359 0 0 0-.039-.136c-.042-.05-.059-.087-.049-.112.006-.019.033-.032.082-.04.052-.009.13-.011.235-.008.122.006.187.008.196.006.039-.001.072.02.1.066a.196.196 0 0 1 .01.046c.016.09.024.228.027.412.036-.115.072-.23.109-.342.049-.146.104-.219.166-.218.45.02.712.256.785.705a1.65 1.65 0 0 1-.08.802c-.094.28-.216.47-.366.572Zm-.325-1.532c-.082.004-.107.418-.075 1.242.115-.075.208-.215.279-.42.07-.204.092-.387.066-.549-.03-.188-.12-.28-.27-.273ZM20.16 4.231a.117.117 0 0 1-.038.082.1.1 0 0 1-.084.03c-.28-.03-.437-.077-.47-.144a.06.06 0 0 1-.008-.026c0-.011.004-.024.014-.038a.1.1 0 0 0 .017-.036.074.074 0 0 1 .013-.029.546.546 0 0 0 0-.117.675.675 0 0 0-.117.165.868.868 0 0 1-.142.206.352.352 0 0 1-.244.109.25.25 0 0 1-.16-.059 1.73 1.73 0 0 1-.136-.127 15.178 15.178 0 0 1-.182-.193.301.301 0 0 1-.076-.176c-.001-.018 0-.036.005-.054.036-.199.163-.39.38-.574.158-.133.383-.276.676-.429-.002-.071-.022-.117-.059-.136-.022-.013-.1.015-.233.083a1.455 1.455 0 0 0-.279.172.988.988 0 0 1-.085.077c-.038.024-.073.031-.104.023a.622.622 0 0 1-.163-.116c-.083-.071-.129-.119-.136-.143-.02-.06-.003-.108.053-.143.002-.003.047-.018.134-.045l.245-.142a1.25 1.25 0 0 1 .441-.149c.052-.004.112.021.179.075.06.05.12.099.182.148.06.048.124.095.188.14.074.06.112.12.114.178l.04 1.272a.32.32 0 0 1 .035.116Zm-.572-.965a.73.73 0 0 0-.277.204 19.22 19.22 0 0 1-.169.218.812.812 0 0 0-.127.187.403.403 0 0 0-.058.169c0 .017.008.026.021.026.048-.002.15-.106.308-.314.158-.209.259-.372.302-.49ZM22.228 1.855a.323.323 0 0 1-.037.128.766.766 0 0 0-.042.108l-.19 2.185c-.007.074-.006.12.004.14.029.06.035.1.02.12-.013.016-.043.022-.09.018a1.398 1.398 0 0 1-.233-.05 3.953 3.953 0 0 0-.185-.053c-.04-.008-.067-.038-.08-.089a.151.151 0 0 1 0-.043c.008-.092.032-.227.073-.406l-.187.308c-.085.125-.157.18-.214.164-.434-.128-.631-.418-.592-.87.023-.256.116-.511.28-.765.16-.245.325-.4.496-.464a.144.144 0 0 1 .065-.01c.056.004.148.082.275.232l.057-.65a.491.491 0 0 0-.022-.098.32.32 0 0 1-.018-.105c.004-.046.037-.067.1-.062a.933.933 0 0 1 .238.068l.193.081c.055.02.085.058.089.113Zm-.661.813c-.13.045-.256.158-.374.34a1.135 1.135 0 0 0-.2.516c-.016.19.049.3.195.33.078.017.204-.379.379-1.186ZM24.278 2.241a.323.323 0 0 1-.052.124.764.764 0 0 0-.053.102l-.442 2.15c-.015.072-.019.118-.011.138.021.064.023.104.006.121-.015.016-.045.019-.092.01a1.41 1.41 0 0 1-.225-.078 3.815 3.815 0 0 0-.178-.074c-.039-.012-.062-.044-.07-.096a.157.157 0 0 1 .006-.044c.018-.09.058-.221.119-.394-.075.094-.148.189-.22.284-.1.115-.177.161-.233.138-.416-.176-.579-.486-.488-.93.052-.253.175-.496.367-.729.187-.225.368-.36.545-.404a.144.144 0 0 1 .067-.004c.055.012.137.1.246.263l.13-.64a.484.484 0 0 0-.01-.1.318.318 0 0 1-.005-.105c.01-.046.045-.063.107-.05a.93.93 0 0 1 .228.094l.183.103c.052.026.077.067.075.121Zm-.75.734c-.136.03-.272.127-.411.294-.14.166-.225.33-.258.49-.038.187.014.304.156.35.075.025.246-.353.512-1.134ZM25.42 2.546a.194.194 0 0 1-.033.057 1.796 1.796 0 0 0-.032.043c-.027.04-.06.102-.1.188L24.65 4.81a.132.132 0 0 0-.002.075.107.107 0 0 1 .004.056c-.042.137-.09.203-.145.198a.811.811 0 0 1-.192-.105.827.827 0 0 1-.188-.143c-.035-.056-.047-.1-.036-.135.002-.008.01-.017.022-.025.011-.008.021-.025.03-.05l.694-2.27a.089.089 0 0 0 0-.043.09.09 0 0 1 .002-.044c.02-.05.07-.072.15-.067a1.07 1.07 0 0 1 .332.14c.08.052.114.102.1.15ZM26.365 5.069c.006.038-.07.116-.231.232-.173.124-.324.195-.452.213a.143.143 0 0 1-.06-.012 1.026 1.026 0 0 1-.292-.199c-.122-.104-.193-.194-.215-.27-.061-.203-.038-.444.07-.723.101-.263.244-.475.43-.635.2-.176.39-.231.57-.167.066.023.139.07.217.14a.828.828 0 0 1 .212.287c.012.026.008.09-.012.19-.018.109-.045.211-.082.307-.055.143-.116.232-.184.27a2.648 2.648 0 0 1-.707-.138 1.18 1.18 0 0 0-.087.338c-.014.124-.006.193.025.208.041.018.105.002.191-.046a.496.496 0 0 0 .158-.117c.039-.057.084-.114.135-.171.035.008.095.05.179.126.084.075.129.131.135.167Zm-.19-1.176c-.035-.018-.107.02-.216.112a.954.954 0 0 0-.242.293c.097.032.181.038.254.018.043-.012.1-.11.172-.295.03-.077.04-.12.031-.128ZM29.158 5.328a.922.922 0 0 1-.138.384c-.107.182-.26.357-.456.525a1.882 1.882 0 0 1-.514.323l-.053.05a.144.144 0 0 1-.066.032c-.04.005-.092-.01-.157-.046a.352.352 0 0 1-.135-.15 11.402 11.402 0 0 1-.074-.18.376.376 0 0 0-.017.076.093.093 0 0 1-.031.052c-.04.034-.08.042-.117.025a.921.921 0 0 1-.215-.187c-.096-.102-.145-.172-.146-.21-.001-.023.027-.052.086-.085a.361.361 0 0 0 .087-.113l1.155-1.947c.006-.01.007-.033.004-.07-.003-.036.004-.063.019-.08.048-.055.106-.063.174-.023a.922.922 0 0 1 .219.203c.082.098.12.171.115.22-.003.022-.028.05-.074.082a.482.482 0 0 0-.102.088l-.282.475c.25-.063.419-.062.507.006a.513.513 0 0 1 .154.223.656.656 0 0 1 .057.327Zm-.35-.183a.963.963 0 0 0-.355.03.882.882 0 0 0-.31.118l-.464.782a.338.338 0 0 0 .039.093c.057.05.219-.047.485-.288.26-.236.445-.447.557-.634a.508.508 0 0 0 .048-.1ZM30.672 6.143c.062.121.066.273.012.454-.05.165-.142.335-.277.51-.184.24-.385.417-.603.531-.237.12-.416.118-.538-.003a4.736 4.736 0 0 0-.19-.217 1.473 1.473 0 0 1-.168-.192c-.082-.104-.097-.252-.045-.445.048-.178.143-.357.282-.539a1.76 1.76 0 0 1 .47-.434c.19-.115.369-.161.536-.138.027.004.058.019.092.045.036.027.098.093.185.196.068.052.15.13.244.232Zm-.486.012c-.048-.037-.137-.013-.268.072-.131.086-.237.182-.32.289a2.01 2.01 0 0 0-.245.414c-.07.161-.087.264-.05.309.047.056.147.03.3-.076.147-.103.283-.236.41-.4.07-.09.127-.19.172-.296.069-.157.07-.26.001-.312ZM31.177 9.104a.118.118 0 0 1-.086.03.1.1 0 0 1-.079-.04c-.173-.221-.247-.367-.223-.437a.06.06 0 0 1 .014-.024.064.064 0 0 1 .037-.016.097.097 0 0 0 .038-.012.076.076 0 0 1 .03-.011.542.542 0 0 0 .085-.082.678.678 0 0 0-.2.03.872.872 0 0 1-.248.042.351.351 0 0 1-.247-.1.246.246 0 0 1-.07-.156 1.694 1.694 0 0 1-.002-.185c.008-.162.012-.25.014-.264a.302.302 0 0 1 .074-.177.222.222 0 0 1 .043-.034c.169-.112.395-.153.679-.125.206.021.465.084.778.188.05-.051.07-.097.059-.137-.007-.025-.081-.062-.223-.11a1.454 1.454 0 0 0-.317-.08c-.026 0-.064-.003-.115-.009-.043-.01-.073-.03-.09-.058a.616.616 0 0 1-.028-.197c-.006-.11-.003-.175.01-.198.03-.056.076-.076.14-.06.003 0 .045.02.125.064l.273.078c.184.063.322.134.414.214.038.034.061.094.069.18.005.077.012.155.02.233.007.077.016.155.028.232.008.095-.009.164-.05.206l-.891.91a.323.323 0 0 1-.061.105Zm.302-1.079a.734.734 0 0 0-.34-.058l-.274.03a.818.818 0 0 0-.224.039.407.407 0 0 0-.162.075c-.012.013-.014.024-.004.034.034.033.18.033.44.002.26-.03.448-.071.564-.122ZM33.525 9.227c-.023.03-.053.039-.092.027a.895.895 0 0 0-.083-.032l-1.043.112c-.276.227-.417.345-.425.354a1.166 1.166 0 0 0-.05.074.388.388 0 0 1-.07.086c-.033.027-.068.031-.105.012a.25.25 0 0 1-.077-.067.823.823 0 0 1-.137-.255c-.048-.129-.045-.215.008-.26a.31.31 0 0 1 .093-.04.314.314 0 0 0 .103-.05l1.032-.85c.081-.098.124-.15.127-.152.054-.044.108-.048.162-.011.022.016.046.04.07.069.05.06.093.132.128.215.035.083.047.14.034.17a.076.076 0 0 1-.022.027c-.008.007-.06.03-.155.067l-.125.103c.11-.02.218-.041.325-.063.139-.023.221-.024.248-.003.038.033.064.11.076.23.013.12.005.2-.022.237ZM35.19 10.227a.327.327 0 0 1-.125.052.768.768 0 0 0-.11.035l-1.83 1.222c-.06.041-.096.071-.105.09-.03.061-.057.091-.081.092-.021 0-.045-.02-.071-.058a1.392 1.392 0 0 1-.107-.213 3.732 3.732 0 0 0-.074-.177c-.02-.036-.013-.075.018-.117a.153.153 0 0 1 .035-.027 3.33 3.33 0 0 1 .363-.198c-.12.015-.24.031-.358.048-.152.012-.24-.009-.263-.064-.172-.417-.069-.751.309-1.004.215-.143.473-.23.775-.262.291-.03.516.001.673.093a.144.144 0 0 1 .05.044c.03.047.027.167-.01.36l.543-.364a.487.487 0 0 0 .064-.079.32.32 0 0 1 .07-.08c.04-.025.077-.012.112.04a.927.927 0 0 1 .096.227l.057.2c.019.056.008.102-.032.14Zm-1.052-.003c-.117-.073-.284-.099-.5-.077a1.145 1.145 0 0 0-.529.168c-.159.107-.204.226-.136.359.036.07.424-.08 1.165-.45Z"/>
        </g>
        <g fill="#322C2C" fill-rule="nonzero">
          <path d="M8.2 32.588a.548.548 0 0 1-.404.182c-.153 0-.303-.064-.447-.196a.59.59 0 0 1-.099-.126 3.035 3.035 0 0 0-.18-.282.3.3 0 0 1-.052-.153.576.576 0 0 1 .075-.292c.063-.135.099-.224.106-.267 0-.025.005-.063.019-.112a.138.138 0 0 1 .082-.059.13.13 0 0 1 .093.003.273.273 0 0 1 .058.046c.057.054.12.127.19.22.068.091.102.148.101.168 0 .02-.044.092-.129.212-.078.112-.108.187-.09.226.003.01.01.018.017.026.031.03.082.03.153-.001a.609.609 0 0 0 .2-.143c.135-.14.182-.277.139-.407-.098-.301-.143-.536-.136-.706a.694.694 0 0 1 .237-.5c.125-.115.287-.195.487-.243.2-.047.354-.039.464.025.045.028.125.172.239.433l.09.192c.029.065.04.13.034.195-.01.1-.08.22-.214.36a5.467 5.467 0 0 1-.112.112 4.086 4.086 0 0 0-.091.09.422.422 0 0 0-.037.072.144.144 0 0 1-.042.063c-.071.068-.14.08-.204.033a.66.66 0 0 1-.146-.208c-.068-.124-.098-.216-.09-.277a.18.18 0 0 1 .042-.053 4.63 4.63 0 0 1 .167-.157c.088-.08.15-.14.188-.18.067-.07.092-.111.074-.125-.054-.045-.13-.049-.23-.011a.74.74 0 0 0-.275.187c-.14.146-.197.29-.17.434.04.155.078.31.116.464a.82.82 0 0 1 .02.364c-.028.121-.11.251-.243.391ZM10.476 32.585a.118.118 0 0 1-.023.068c-.015.017-.042.03-.082.038-.04.009-.062.016-.068.023l-.982 1.221a.214.214 0 0 0-.028.069.211.211 0 0 1-.029.071c-.025.032-.07.033-.137.003-.033-.015-.091-.077-.174-.187-.09-.117-.129-.194-.117-.23.01-.03.037-.06.082-.086a.412.412 0 0 0 .102-.074.497.497 0 0 0 .047-.074 1.06 1.06 0 0 1-.298.145c-.123.034-.213.028-.271-.018a.804.804 0 0 1-.184-.246c-.062-.116-.087-.196-.074-.24.04-.152.349-.585.925-1.301a.329.329 0 0 1 .06-.117c.043-.054.093-.075.149-.062.016.005.04.02.072.045.06.048.123.114.191.198s.103.143.105.176a.067.067 0 0 1-.014.045c-.016.02-.054.04-.115.062-.06.022-.099.042-.114.061-.559.687-.833 1.039-.823 1.055.017.029.144-.003.38-.094.238-.092.392-.182.464-.271l.395-.491a.146.146 0 0 1 .033-.111c.055-.069.122-.091.202-.068.01.002.021.009.036.02.047.038.107.104.181.2.074.094.11.151.11.17ZM10.27 34.799a.145.145 0 0 1-.063-.02c-.049-.032-.094-.143-.135-.332l-.353.546a.485.485 0 0 0-.027.097.32.32 0 0 1-.033.1c-.026.04-.065.043-.118.009a.96.96 0 0 1-.182-.173 6.629 6.629 0 0 1-.13-.16c-.038-.043-.047-.09-.025-.14a.327.327 0 0 1 .093-.097.79.79 0 0 0 .087-.076l1.193-1.84a.36.36 0 0 0 .062-.128c.003-.065.015-.104.039-.115.017-.01.047-.002.088.025.044.027.104.078.18.15.087.086.134.131.141.136.03.024.04.063.03.115a.19.19 0 0 1-.023.042c-.05.077-.136.185-.257.323.104-.062.207-.122.31-.181.135-.076.225-.093.27-.051.32.316.357.665.11 1.047-.14.217-.34.398-.599.543-.259.144-.478.204-.657.18Zm.79-1.355c-.063-.051-.36.24-.891.873.136.02.3-.021.49-.126s.329-.226.418-.364c.104-.16.098-.288-.017-.383ZM13.868 33.767a.183.183 0 0 1-.075.091c-.04.029-.072.037-.096.024-.014-.007-.029-.027-.044-.06-.015-.032-.03-.053-.048-.064-.087-.059-.174.006-.26.196l-.044.095-.036.087.098.045c.023.01.05.067.082.17.032.104.04.17.024.2a.188.188 0 0 1-.082.08c-.036.02-.067.022-.093.01a.794.794 0 0 0-.207-.116l-.554 1.21c-.007.016-.008.04-.002.074.006.034.002.058-.01.075-.043.062-.103.078-.178.049a.898.898 0 0 1-.212-.163c-.106-.098-.156-.166-.148-.204.003-.016.024-.043.063-.08a.347.347 0 0 0 .076-.094l.496-1.083-.105-.048c-.038-.018-.07-.073-.096-.167-.025-.094-.028-.162-.009-.203a.132.132 0 0 1 .072-.067.112.112 0 0 1 .093-.002l.222.1c.102-.224.187-.374.254-.45.15-.163.325-.2.528-.107.027.012.053.025.079.04a.468.468 0 0 1 .162.195c.043.08.06.137.05.167ZM14.621 34.705c.096.098.144.242.145.431 0 .173-.038.362-.115.568a1.853 1.853 0 0 1-.423.683c-.19.183-.362.234-.515.154a4.59 4.59 0 0 0-.245-.153 1.486 1.486 0 0 1-.217-.134c-.108-.077-.166-.214-.173-.413a1.573 1.573 0 0 1 .112-.598c.081-.216.189-.4.322-.551.149-.166.306-.261.472-.288a.214.214 0 0 1 .102.016c.042.016.12.06.235.134.08.03.18.08.3.151Zm-.46.152c-.058-.021-.136.028-.236.148-.1.12-.174.242-.221.368a2.015 2.015 0 0 0-.114.468c-.02.174-.006.278.042.31.062.04.15-.013.265-.16.111-.14.202-.308.275-.501.04-.107.066-.218.078-.334.02-.17-.01-.269-.09-.299ZM16.253 35.335c-.001.037-.02.062-.06.075a.885.885 0 0 0-.086.022c-.193.17-.455.401-.786.69-.094.345-.14.523-.142.534l.002.09a.385.385 0 0 1-.007.111c-.011.041-.037.064-.078.07a.25.25 0 0 1-.103-.01.825.825 0 0 1-.258-.13c-.115-.077-.163-.15-.145-.216a.307.307 0 0 1 .052-.088.315.315 0 0 0 .055-.1l.35-1.286.015-.198c.018-.067.06-.1.126-.102.028 0 .06.006.097.016.076.02.153.054.23.102.077.047.119.087.126.12a.073.073 0 0 1-.002.034c-.003.01-.032.058-.088.143l-.042.156c.077-.079.154-.158.229-.238.099-.099.166-.147.2-.144.05.004.115.052.196.143.08.091.12.16.119.206ZM17.692 34.734a.195.195 0 0 1-.024.061 1.614 1.614 0 0 0-.025.047c-.02.043-.043.11-.07.202l-.284 2.046a.133.133 0 0 0 .01.074c.01.023.015.041.013.055-.02.142-.057.215-.112.219a.812.812 0 0 1-.206-.075.82.82 0 0 1-.208-.112c-.043-.049-.063-.09-.057-.126 0-.01.007-.019.017-.029.01-.01.018-.028.021-.054l.327-2.35a.088.088 0 0 0-.006-.043.09.09 0 0 1-.006-.043c.012-.053.058-.083.139-.09a1.074 1.074 0 0 1 .35.086c.087.039.128.083.12.132ZM18.623 35.08a.068.068 0 0 1 0 .027.796.796 0 0 1-.058.186c-.034.082-.062.126-.084.132-.024.006-.12-.03-.286-.11-.166-.08-.253-.132-.262-.158a.097.097 0 0 1-.003-.051.447.447 0 0 1 .074-.184c.047-.071.094-.108.141-.11.054-.003.143.028.267.093.124.065.195.123.21.175Zm-.328 2.303c-.002.081-.037.128-.106.14-.012 0-.028-.001-.049-.004a1.2 1.2 0 0 1-.299-.09c-.126-.052-.197-.1-.215-.143-.009-.019.006-.052.046-.099a.385.385 0 0 0 .056-.18l.193-1.4a.705.705 0 0 1-.018-.176c.004-.029.048-.038.133-.026a.975.975 0 0 1 .278.098c.117.057.186.103.207.137.006.01.008.022.006.035a.285.285 0 0 1-.054.095.272.272 0 0 0-.054.105l-.185 1.34c-.003.023.007.052.028.09a.197.197 0 0 1 .033.078ZM19.9 34.993a.183.183 0 0 1-.034.113c-.026.042-.053.06-.08.058-.016-.001-.036-.014-.063-.038-.026-.025-.049-.038-.07-.041-.102-.022-.157.071-.165.28l-.004.104v.094l.108.004c.025.001.071.043.14.127.07.083.102.141.099.175a.187.187 0 0 1-.045.106c-.026.03-.053.045-.083.044a.793.793 0 0 0-.236-.029l-.049 1.328c0 .018.008.042.026.07.018.029.025.053.02.073-.017.074-.066.111-.147.113a.9.9 0 0 1-.257-.07c-.136-.05-.208-.094-.215-.133-.004-.016.005-.049.027-.098a.345.345 0 0 0 .035-.115l.045-1.19-.115-.005c-.043-.001-.094-.04-.153-.118-.06-.077-.088-.139-.086-.183a.13.13 0 0 1 .04-.09.113.113 0 0 1 .086-.037l.243.009c.01-.247.03-.417.063-.513.076-.208.225-.308.448-.3.03.001.058.004.087.007a.47.47 0 0 1 .226.12c.07.058.106.103.11.135ZM21.249 36.886c.021.033-.018.134-.12.305-.11.181-.22.306-.33.373a.14.14 0 0 1-.06.013 1.026 1.026 0 0 1-.348-.067c-.152-.048-.254-.102-.304-.163-.137-.163-.211-.394-.223-.692a1.564 1.564 0 0 1 .142-.753c.114-.24.267-.367.458-.379.07-.005.154.01.255.044a.834.834 0 0 1 .308.18c.021.019.043.079.065.179.027.107.042.212.046.315.006.152-.014.258-.061.319a2.646 2.646 0 0 1-.704.152c0 .11.018.225.054.345.037.12.072.18.106.18.045.001.097-.038.157-.117a.494.494 0 0 0 .098-.168c.013-.068.032-.139.056-.211a.57.57 0 0 1 .215.045c.107.036.17.07.19.1Zm-.642-1.005c-.039-.003-.09.06-.154.188a.949.949 0 0 0-.105.365.433.433 0 0 0 .24-.084c.035-.028.049-.141.04-.338-.003-.083-.01-.127-.021-.13ZM23.458 36.107a.286.286 0 0 1-.108.032.51.51 0 0 1-.102-.003.518.518 0 0 0-.128 0l-.51.088a.16.16 0 0 0-.08.05c-.03.028-.056.044-.081.046-.045.003-.085-.016-.12-.057a5.697 5.697 0 0 1-.1-.121 4.31 4.31 0 0 1-.09-.085c-.032-.03-.05-.055-.053-.075a.158.158 0 0 1 .018-.115.156.156 0 0 1 .08-.075 4.77 4.77 0 0 0 .213-.033l.247-.06c.176-.041.316-.07.42-.088.124-.022.198-.026.22-.014.046.024.092.082.14.174a.83.83 0 0 1 .08.222c.008.05-.007.089-.046.114ZM26.039 36.035c.006.108-.015.182-.064.221a.149.149 0 0 1-.068.026c-.03.005-.05.012-.062.023l-.412.35c-.013.012-.022.035-.029.07-.006.035-.016.057-.03.066-.042.032-.147.048-.315.048s-.275-.017-.32-.05c-.035-.027-.06-.078-.075-.153a.691.691 0 0 0-.02-.082l-.692-2.153a.123.123 0 0 0-.043-.046c-.018-.011-.028-.022-.032-.033-.009-.042.02-.084.084-.125.042-.025.144-.04.308-.046.185-.005.29.025.313.091.006.017.002.047-.01.088-.013.042-.017.071-.011.089l.57 1.771.288-.25a.424.424 0 0 1 .09-.093c.03-.014.125.006.286.059.161.053.243.096.244.129ZM26.542 34.19c.137.006.27.077.402.214.12.126.222.29.308.492.119.279.174.54.165.785-.013.264-.102.418-.269.464-.064.01-.158.03-.283.058-.09.025-.173.042-.25.05-.132.019-.269-.041-.411-.181-.131-.13-.241-.3-.33-.511a1.75 1.75 0 0 1-.147-.621c-.006-.222.042-.4.144-.533a.212.212 0 0 1 .085-.058c.042-.017.13-.038.263-.063.08-.033.187-.065.323-.096Zm-.23.426c-.056.024-.08.113-.07.269.01.155.041.295.094.419.063.148.143.288.24.418.106.14.188.205.245.196.072-.014.1-.113.082-.298a1.863 1.863 0 0 0-.146-.552 1.34 1.34 0 0 0-.174-.296c-.102-.137-.192-.189-.271-.156ZM29.937 34.283c.037.028.066.06.087.097.034.058.035.111.002.158a.241.241 0 0 1-.068.051 1.281 1.281 0 0 1-.255.106c-.103.032-.17.044-.201.036a.068.068 0 0 1-.037-.03c-.012-.021-.017-.064-.016-.129.002-.064-.003-.107-.016-.128-.439-.768-.668-1.15-.687-1.148-.036.008-.055.122-.057.34-.002.24.036.425.112.557l.33.571c.04.037.067.068.082.094.028.048.024.1-.012.154a.238.238 0 0 1-.068.05 1.281 1.281 0 0 1-.255.106c-.104.032-.17.044-.202.036a.046.046 0 0 1-.028-.022.317.317 0 0 1-.018-.13.312.312 0 0 0-.022-.135c-.439-.768-.668-1.15-.687-1.147-.033.006-.05.132-.05.378 0 .26.027.439.085.538l.315.545c.04.01.07.035.092.071.043.074.039.144-.012.21a.093.093 0 0 1-.032.025 1.25 1.25 0 0 1-.252.096c-.115.034-.183.047-.204.038a.1.1 0 0 1-.048-.042c-.011-.02-.014-.05-.007-.09.007-.04.008-.064.003-.071l-.784-1.356a.149.149 0 0 0-.058-.048c-.03-.016-.048-.035-.052-.056-.012-.047.003-.09.045-.13.027-.026.106-.057.238-.094.143-.04.23-.048.26-.022.02.017.036.05.047.101.018.08.03.126.036.136.012.021.03.042.052.063a1.045 1.045 0 0 1-.027-.33c.011-.128.05-.211.114-.248a.771.771 0 0 1 .296-.073c.127-.01.212-.006.254.014.031.013.091.071.18.176l-.01-.333c.01-.137.045-.223.105-.258a.791.791 0 0 1 .297-.079c.132-.015.216-.008.253.02.127.093.42.537.88 1.332ZM32.142 32.532c.04.021.075.049.102.082.042.052.051.104.027.156a.242.242 0 0 1-.06.06c-.059.049-.137.097-.234.145-.097.048-.161.07-.193.068a.067.067 0 0 1-.04-.024c-.016-.019-.028-.06-.037-.124-.009-.064-.02-.105-.036-.125-.557-.688-.845-1.029-.863-1.023-.035.014-.036.13-.002.345.037.236.103.414.2.532l.418.511a.45.45 0 0 1 .095.08c.036.043.04.094.013.154a.24.24 0 0 1-.059.06c-.06.049-.137.097-.234.145-.097.049-.162.071-.193.068a.046.046 0 0 1-.032-.018.32.32 0 0 1-.04-.124.31.31 0 0 0-.042-.13c-.557-.689-.844-1.03-.863-1.024-.031.012-.027.139.012.382.04.256.097.428.17.517l.399.488a.147.147 0 0 1 .102.056c.054.066.061.135.022.208a.094.094 0 0 1-.027.03 1.246 1.246 0 0 1-.234.136c-.109.052-.174.075-.196.07a.099.099 0 0 1-.054-.035c-.014-.017-.02-.046-.02-.087 0-.04-.003-.064-.009-.071l-.992-1.213a.148.148 0 0 0-.066-.038c-.032-.011-.052-.027-.06-.047-.019-.045-.011-.09.024-.136.022-.03.096-.073.22-.13.135-.064.22-.085.254-.063.022.013.043.044.062.092a.94.94 0 0 0 .057.128c.015.019.036.037.061.054a1.049 1.049 0 0 1-.08-.322c-.009-.128.016-.216.073-.262a.77.77 0 0 1 .281-.12c.124-.03.208-.04.253-.027.033.008.101.057.206.145l-.063-.326c-.013-.137.008-.228.062-.272a.792.792 0 0 1 .28-.125c.128-.036.212-.043.254-.021.14.072.5.463 1.082 1.175ZM33.508 31.265a.117.117 0 0 1 .031.085c0 .033-.012.06-.037.08-.218.178-.363.255-.433.233a.058.058 0 0 1-.025-.014.063.063 0 0 1-.017-.036.099.099 0 0 0-.013-.038.075.075 0 0 1-.012-.029.543.543 0 0 0-.084-.083.67.67 0 0 0 .036.2.861.861 0 0 1 .047.245c0 .098-.03.181-.093.249a.249.249 0 0 1-.155.072 1.696 1.696 0 0 1-.186.007 12.794 12.794 0 0 1-.266-.007.304.304 0 0 1-.18-.07.218.218 0 0 1-.034-.04c-.117-.166-.164-.39-.143-.674.016-.205.073-.465.17-.78-.054-.049-.1-.067-.14-.054-.025.007-.06.082-.104.224-.045.142-.07.248-.073.318a.978.978 0 0 1-.005.115c-.01.043-.029.073-.057.09a.62.62 0 0 1-.197.033c-.11.01-.176.008-.198-.004-.057-.028-.079-.074-.065-.138 0-.003.02-.045.062-.126l.07-.274c.06-.185.127-.324.205-.417.033-.04.093-.064.179-.074l.233-.025c.078-.01.155-.021.233-.035.095-.01.164.005.207.044l.936.865a.322.322 0 0 1 .108.058Zm-1.091-.273a.727.727 0 0 0-.05.34c.014.091.026.182.037.272.003.067.018.14.044.222a.406.406 0 0 0 .08.16c.014.011.025.013.034.003.032-.035.03-.181-.008-.44-.038-.257-.083-.443-.137-.557Z"/>
        </g>
        <g fill="#322C2C" fill-rule="nonzero">
          <path d="M2.375 20.313a3.219 3.219 0 0 0-.006.059.06.06 0 0 1-.012.037.06.06 0 0 1-.027.004.451.451 0 0 1-.127-.023.252.252 0 0 1-.112-.053c-.009-.008-.017-.035-.025-.082a1 1 0 0 0-.04-.153c-.039.005-.096.017-.172.038a.704.704 0 0 0-.148.052c-.015.039-.036.088-.062.145a.577.577 0 0 1-.01.037c-.004.011-.013.02-.027.028a.028.028 0 0 1-.014.003.407.407 0 0 1-.125-.035c-.06-.022-.09-.038-.092-.045-.004-.013.006-.044.03-.095.033-.073.052-.118.058-.135-.022-.02-.033-.038-.033-.058l.001-.015c.003-.01.034-.03.095-.059l.201-.607a.206.206 0 0 0 .002-.06c-.002-.025 0-.04.009-.047.005-.005.018-.007.037-.007.05 0 .119.01.209.033a.44.44 0 0 1 .162.059c.006.102.03.255.07.458.052.252.105.425.158.52Zm-.406-.419a1.596 1.596 0 0 1-.048-.306c-.02.046-.045.108-.073.188a.964.964 0 0 0-.048.157c.02-.008.076-.02.17-.039Z"/>
          <path d="M3.156 19.308c0 .01-.002.02-.005.029a.216.216 0 0 0-.013.037v.908a.79.79 0 0 1 .007.051c.006.043 0 .07-.017.083-.016.013-.053.016-.111.01a.49.49 0 0 1-.115-.025c-.056-.018-.087-.036-.093-.055.001-.013 0-.033-.004-.06a14.127 14.127 0 0 0-.18-.447v.408c0 .007.004.017.01.029a.247.247 0 0 1 .013.024.13.13 0 0 1 .007.042c0 .036-.017.055-.05.055a.5.5 0 0 1-.137-.028c-.055-.018-.087-.032-.094-.043-.011-.014-.011-.033 0-.056a.157.157 0 0 0 .017-.043v-.863a.113.113 0 0 0-.005-.024.052.052 0 0 1-.001-.027.092.092 0 0 1 .054-.063.467.467 0 0 1 .14.011.204.204 0 0 1 .103.047c.026.027.06.111.101.252.05.172.09.289.119.35v-.542a.126.126 0 0 0-.006-.03.124.124 0 0 1-.005-.031c0-.006 0-.011.003-.016.004-.015.022-.027.052-.034a.201.201 0 0 1 .07-.007.425.425 0 0 1 .075.015c.043.013.064.027.065.043ZM4.061 19.308c0 .01-.002.02-.005.029a.216.216 0 0 0-.013.037v.908a.79.79 0 0 1 .007.051c.006.043 0 .07-.016.083-.017.013-.054.016-.112.01a.49.49 0 0 1-.115-.025c-.056-.018-.087-.036-.093-.055.001-.013 0-.033-.004-.06a14.127 14.127 0 0 0-.18-.447v.408c0 .007.004.017.01.029a.247.247 0 0 1 .013.024.13.13 0 0 1 .007.042c0 .036-.017.055-.05.055a.5.5 0 0 1-.137-.028c-.055-.018-.087-.032-.094-.043-.011-.014-.011-.033 0-.056a.157.157 0 0 0 .017-.043v-.863a.113.113 0 0 0-.004-.024.052.052 0 0 1-.002-.027.092.092 0 0 1 .054-.063.467.467 0 0 1 .14.011.204.204 0 0 1 .103.047c.026.027.06.111.101.252.05.172.09.289.119.35v-.542a.126.126 0 0 0-.006-.03.124.124 0 0 1-.005-.031c0-.006 0-.011.003-.016.004-.015.022-.027.052-.034a.201.201 0 0 1 .07-.007.425.425 0 0 1 .075.015c.043.013.064.027.065.043ZM4.756 20.41a.282.282 0 0 1-.083-.007 3.702 3.702 0 0 1-.09-.021 4.17 4.17 0 0 1-.165-.04.367.367 0 0 1-.213-.19.664.664 0 0 1-.064-.303c0-.097.021-.209.064-.337.057-.173.132-.26.223-.26.009 0 .02.002.035.006a.342.342 0 0 0 .034.006c.087-.02.143-.03.167-.03l.035.002c.141.014.252.083.333.207.073.112.11.245.11.4a.702.702 0 0 1-.1.379.365.365 0 0 1-.286.188Zm-.032-1.009c-.026-.005-.051.022-.076.082-.026.06-.051.09-.077.09a.068.068 0 0 1-.025-.008.105.105 0 0 0-.028-.01.594.594 0 0 0-.06.295c0 .1.014.186.04.258.031.08.074.123.128.132.063.009.114-.042.153-.153.034-.097.05-.213.05-.347a.843.843 0 0 0-.026-.228c-.018-.066-.045-.103-.079-.11ZM35.703 20.231c.003.027-.014.046-.051.057a.21.21 0 0 0-.053.001.927.927 0 0 0-.156.04 1.327 1.327 0 0 0-.22.077.137.137 0 0 0-.035.026c-.01.01-.017.016-.02.016-.014.001-.054-.022-.12-.072a.938.938 0 0 1-.055-.036c-.019-.013-.028-.028-.03-.045 0-.007.04-.067.12-.18.1-.14.176-.257.23-.35.084-.148.13-.265.136-.351a.53.53 0 0 0-.216.198c-.005.005-.009.013-.01.025-.002.013-.004.021-.008.026a.048.048 0 0 1-.04.018.21.21 0 0 1-.11-.044l-.056-.03c-.022-.012-.033-.023-.034-.032-.002-.021.02-.062.069-.123a.872.872 0 0 1 .171-.163.35.35 0 0 1 .2-.083c.021 0 .042.007.062.021l.057.044c.075.051.122.1.143.146.003.009.005.02.005.035 0 .065-.034.17-.102.314a2.184 2.184 0 0 1-.207.357l.119-.042a.25.25 0 0 0 .029-.019.039.039 0 0 1 .026-.008c.022.003.053.029.093.078s.061.082.063.1ZM36.673 19.29c.065.01.117.058.155.143.035.08.052.18.052.297 0 .138-.027.274-.082.408-.078.192-.191.288-.34.288a.385.385 0 0 1-.088-.013 6.067 6.067 0 0 0-.268-.069c-.066-.015-.12-.08-.163-.195-.04-.107-.06-.23-.06-.368 0-.136.021-.253.062-.35.045-.108.11-.172.197-.193l.016-.002c.009 0 .02.003.033.009.014.005.024.007.03.005a.51.51 0 0 1 .12-.014c.045 0 .102.007.17.02l.166.034Zm-.25.088c-.063 0-.113.05-.148.149a.858.858 0 0 0-.042.28c0 .084.014.174.042.272.027.097.055.146.081.146.052 0 .094-.056.127-.168.028-.1.042-.214.042-.344a.947.947 0 0 0-.024-.234c-.019-.067-.044-.1-.078-.1Z"/>
          <path d="M37.5 20.231c.002.027-.015.046-.052.057a.21.21 0 0 0-.052.001.927.927 0 0 0-.156.04 1.327 1.327 0 0 0-.22.077.137.137 0 0 0-.035.026c-.011.01-.018.016-.02.016-.014.001-.054-.022-.12-.072a.938.938 0 0 1-.056-.036c-.018-.013-.028-.028-.029-.045 0-.007.04-.067.12-.18.099-.14.175-.257.23-.35.083-.148.129-.265.135-.351a.53.53 0 0 0-.215.198c-.006.005-.01.013-.01.025-.002.013-.005.021-.008.026a.048.048 0 0 1-.04.018.21.21 0 0 1-.111-.044l-.055-.03c-.022-.012-.034-.023-.035-.032-.002-.021.021-.062.07-.123a.872.872 0 0 1 .17-.163.35.35 0 0 1 .2-.083c.022 0 .043.007.062.021.02.015.04.029.058.044.074.051.122.1.142.146.004.009.006.02.006.035 0 .065-.034.17-.103.314a2.184 2.184 0 0 1-.207.357l.119-.042a.25.25 0 0 0 .029-.019.039.039 0 0 1 .026-.008c.022.003.053.029.093.078s.061.082.063.1ZM38.47 19.29c.065.01.116.058.155.143.034.08.051.18.051.297 0 .138-.027.274-.081.408-.078.192-.192.288-.341.288a.385.385 0 0 1-.088-.013 6.067 6.067 0 0 0-.268-.069c-.066-.015-.12-.08-.162-.195-.04-.107-.06-.23-.06-.368 0-.136.02-.253.062-.35.045-.108.11-.172.196-.193l.016-.002c.01 0 .02.003.034.009.013.005.023.007.03.005a.51.51 0 0 1 .119-.014c.046 0 .103.007.17.02l.167.034Zm-.25.088c-.064 0-.113.05-.149.149a.858.858 0 0 0-.042.28c0 .084.014.174.042.272.028.097.055.146.081.146.052 0 .094-.056.127-.168.028-.1.042-.214.042-.344a.947.947 0 0 0-.024-.234c-.018-.067-.044-.1-.077-.1Z"/>
        </g>
        <path d="M17.886 8.706c.204 0 .306.105.498.28.017.016.092.19.15.343.063.169.032.44.03.545-.006.31-.251.835-.203.933.05.097.595-.097.997-.03.401.067.687 1.093.726 1.216.04.124.244.91.439 1.092.195.182.13.389.044.553-.074.144-.336.132-.4.127l-.014-.001-.682 1.028s-.232.326.058.928c.343.71.39 3.311.36 3.981l-.011.173c-.015.402.051 1.128-.18 2.201-.09.41-.285.817-.273 1 .012.182.49.58 1.041.615.551.035 5.322.62 6.251.86.078.02.168.043.267.066l.324.075c.276.063.594.132.919.203l.392.085c.915.2 1.79.398 1.904.484.207.155 0 1.239-.223 1.394-.224.155-4.72-.224-5.15-.241-.43-.017-4.133-.361-5.097-.447-.964-.087-6.251-.99-7.078-1.317 0 0 .136.853.079 1.616-.065.859-.714 1.65-.81 1.87-.18.412-.533.765-1.041.575-.508-.189-1.733-.683-1.491-1.156.138-.272.73-1.822 1.421-2.497.512-.5 1.16-.456 1.3-.606-.336-.026-2.489-1.041-2.98-1.35-.368-.233-.198-.306.022-.393l.112-.046c.038-.016.074-.033.107-.052.267-.155 1.92-.38 2.075-.353.146.024 1.703.308 1.886.34l.017.004 2.42-3.502s-.026 0-.069-.086c-.043-.086-.077-.344-.052-.628.026-.284.071-.842-.015-1.031-.086-.19-.15-.913-.162-1.173-.01-.215.04-.877.065-1.049.026-.172.107-1.778.142-2.612.032-.783.838-1.418 1.294-1.636l.086-.038-.105-.161c-.082-.084-.234-.386-.285-.723-.04-.254-.08-.575.015-.813.118-.296.356-.646.88-.646Zm.2 8.434c-.043.585-.161 1.191-.135 1.363.025.173-.063 1.421-.156 1.687-.02.058-.062.2-.12.39l-.075.248c-.055.179-.117.38-.184.586l-.114.341c-.078.226-.159.447-.238.638-.121.267-.224.903-.224.903.24.104 1.96.32 1.953.199-.03-.474.017-.838-.03-1.087-.02-.11-.147-1.067-.086-1.363.081-.393.098-.888.09-.937a14.647 14.647 0 0 0-.13-.556l-.075-.31c-.05-.205-.095-.396-.119-.51l-.105-.512-.056-.276c-.084-.408-.165-.773-.196-.804Zm-1.505 2.277c-.063.01-.195-.001-.26.063l-2.192 3.286s1.833.358 2.015.358c0-.1-.003-.195-.008-.29l-.019-.279c-.043-.602-.078-1.206.397-2.231.197-.423.067-.907.067-.907Zm.327-5.678-.001.031c-.016.233-.045.49-.05.536l-.01.22-.01.23-.008.234c0 .068-.032.417-.046.56-.012.135-.06.499-.068.625-.003.039-.033.477-.033.497l-.016.477-.023.494c0 .02-.018.17.003.287.012.065.105.278.144.317l.118-4.508Zm2.28-.536c-.025.061-.1.19-.1.25 0 .031.01.077.022.126l.038.148c.021.091.108.633.095.693-.013.06.535-.697.487-.723-.047-.026-.2-.08-.219-.172-.018-.092-.039-.203.04-.206.077-.002-.265-.573-.268-.583-.024-.096-.015.264-.095.467Zm-2.356-9.329c.163 0 .295.177.295.394 0 .19-.1.35-.235.386l-.06.008c-.162 0-.294-.176-.294-.394 0-.217.132-.394.294-.394Z" fill="#000" fill-rule="nonzero"/>
      </g>
    </g>
    <g transform="translate(-107.000000, -2322.000000) translate(4.000000, 2299.000000) translate(104.000000, 24.000000)">
      <ellipse fill="#FFF" cx="24.136" cy="24.042" rx="24.136" ry="24.042"/>
      <g fill="#000" fill-rule="nonzero">
        <path d="M24-.184C10.643-.184-.184 10.644-.184 24c0 13.356 10.827 24.184 24.184 24.184 13.357 0 24.184-10.828 24.184-24.184C48.184 10.644 37.357-.184 24-.184Zm0 .368C37.153.184 47.816 10.846 47.816 24c0 13.154-10.663 23.816-23.816 23.816C10.847 47.816.184 37.154.184 24 .184 10.846 10.847.184 24 .184Z"/>
        <path d="M24 6.454C14.31 6.454 6.454 14.31 6.454 24S14.309 41.546 24 41.546c9.69 0 17.546-7.856 17.546-17.546S33.691 6.454 24 6.454Zm0 .142c9.612 0 17.404 7.792 17.404 17.404S33.612 41.404 24 41.404 6.596 33.612 6.596 24 14.388 6.596 24 6.596Z"/>
      </g>
      <g fill="#322C2C" fill-rule="nonzero">
        <path d="M7.764 13.576a.653.653 0 0 1 .332.413c.047.177.015.37-.095.576a.707.707 0 0 1-.118.152 3.727 3.727 0 0 0-.275.293.363.363 0 0 1-.163.106.7.7 0 0 1-.364 0 1.627 1.627 0 0 0-.342-.043.537.537 0 0 1-.137.011.165.165 0 0 1-.093-.077.155.155 0 0 1-.025-.11.324.324 0 0 1 .037-.08 2.13 2.13 0 0 1 .2-.285c.086-.107.142-.163.166-.168.025-.005.12.024.286.086.154.058.25.07.29.037a.08.08 0 0 0 .026-.027c.025-.045.01-.104-.047-.177a.73.73 0 0 0-.226-.189c-.205-.115-.377-.128-.517-.039-.322.203-.583.325-.784.368a.84.84 0 0 1-.654-.126 1.286 1.286 0 0 1-.428-.49c-.114-.218-.15-.4-.109-.546.019-.06.163-.196.434-.406.064-.053.13-.107.197-.16a.46.46 0 0 1 .218-.098c.12-.02.28.027.483.14.038.021.093.053.164.097.063.038.107.064.133.078.017.007.05.014.095.021a.174.174 0 0 1 .086.03c.1.062.134.138.1.226-.02.051-.087.128-.2.232-.125.115-.223.177-.296.186a.217.217 0 0 1-.075-.032 5.465 5.465 0 0 1-.233-.147 5.353 5.353 0 0 0-.266-.165c-.1-.056-.157-.072-.168-.047-.036.075-.018.165.055.269a.89.89 0 0 0 .3.263c.213.118.399.14.558.066.17-.09.338-.182.507-.272a.993.993 0 0 1 .418-.132c.15-.003.327.053.53.166ZM7.558 11.373c.039.03.065.068.08.114.014.045.011.082-.009.111a.97.97 0 0 0-.18.22l1.32.901a.587.587 0 0 1 .184.062c.065.044.069.112.012.204-.03.048-.108.12-.236.215-.138.105-.229.15-.273.132-.019-.006-.046-.036-.083-.09a.416.416 0 0 0-.094-.109l-1.184-.808-.078.113c-.029.043-.102.07-.22.08-.117.012-.198.002-.243-.028a.154.154 0 0 1-.064-.1.14.14 0 0 1 .019-.113l.165-.24-.301-.205a.285.285 0 0 1-.178-.048c-.047-.032-.062-.072-.046-.12a.486.486 0 0 1 .05-.087 1.57 1.57 0 0 1 .237-.262.741.741 0 0 1 .226-.161.073.073 0 0 1 .063.008c.023.016.044.056.064.122.02.066.038.106.055.12l.18.124.073-.107c.016-.022.088-.041.217-.057.13-.017.21-.013.244.01ZM10.525 10.779a.14.14 0 0 1 .042.1.119.119 0 0 1-.041.097c-.253.224-.422.324-.508.3a.073.073 0 0 1-.03-.014.076.076 0 0 1-.022-.043.117.117 0 0 0-.018-.045.089.089 0 0 1-.016-.034.647.647 0 0 0-.105-.095.81.81 0 0 0 .053.236c.045.127.068.224.069.293a.417.417 0 0 1-.1.303.298.298 0 0 1-.182.094 2.087 2.087 0 0 1-.223.017 18.66 18.66 0 0 1-.319.005.365.365 0 0 1-.218-.074.267.267 0 0 1-.044-.049c-.148-.192-.216-.459-.204-.8.01-.247.064-.561.164-.943-.065-.056-.122-.076-.168-.059-.03.01-.068.102-.115.274-.047.173-.07.301-.072.385.002.03.002.076 0 .138-.01.052-.031.089-.064.11-.025.018-.104.034-.235.05-.13.016-.21.018-.238.005-.07-.031-.098-.085-.084-.163 0-.003.022-.055.068-.154l.072-.332c.06-.224.135-.394.224-.51.038-.049.109-.081.21-.097l.28-.041c.092-.015.185-.033.277-.054.114-.016.197-.002.25.044l1.165.991a.384.384 0 0 1 .132.065Zm-1.321-.275a.87.87 0 0 0-.043.41c.02.109.04.217.057.325.007.08.028.167.064.264a.483.483 0 0 0 .104.186c.017.014.03.015.04.003.037-.043.027-.218-.03-.526-.059-.308-.122-.528-.192-.662ZM12.062 9.137c.05.023.093.054.127.091.055.06.07.121.044.185a.29.29 0 0 1-.067.077 1.535 1.535 0 0 1-.27.19c-.113.065-.189.096-.227.094a.08.08 0 0 1-.05-.025c-.02-.021-.038-.07-.053-.146-.015-.076-.032-.125-.052-.147-.715-.785-1.084-1.174-1.105-1.165-.037.015-.024.167.04.456.067.304.147.506.24.608l.512.556c.05.002.092.022.127.06.07.075.083.158.04.248a.112.112 0 0 1-.03.038c-.054.05-.144.109-.27.178-.127.07-.203.103-.23.098a.117.117 0 0 1-.067-.038c-.018-.02-.029-.054-.031-.102-.003-.05-.008-.077-.015-.085L9.452 8.923a.178.178 0 0 0-.082-.04c-.04-.012-.065-.029-.075-.052-.026-.053-.02-.108.019-.165.024-.037.11-.094.254-.172.157-.085.257-.116.3-.093.028.015.055.05.081.107.042.09.067.139.077.149.02.022.046.042.077.06a1.258 1.258 0 0 1-.118-.38c-.02-.153.003-.26.069-.32a.953.953 0 0 1 .327-.17c.15-.05.251-.065.302-.042.172.076.632.52 1.379 1.332ZM12.295 5.464c.02.02.042.068.065.147a.923.923 0 0 0 .045.13l1.512 2.16c.051.073.088.114.112.124.073.035.11.066.11.095.002.026-.02.055-.067.087-.051.035-.136.08-.254.132a4.613 4.613 0 0 0-.212.093c-.043.023-.09.017-.142-.02a.185.185 0 0 1-.033-.04 4.004 4.004 0 0 1-.246-.43c.02.143.043.285.066.427.018.18-.006.286-.07.315-.5.215-.905.1-1.217-.347a2.005 2.005 0 0 1-.333-.92c-.043-.348-.01-.617.098-.807a.17.17 0 0 1 .051-.06c.056-.038.2-.037.433.004l-.45-.642a.578.578 0 0 0-.096-.074.386.386 0 0 1-.097-.082c-.032-.046-.018-.091.044-.134.056-.039.146-.079.272-.12.082-.024.162-.049.24-.074.067-.023.123-.01.169.036Zm.02 1.256c-.086.142-.113.341-.083.599.03.258.102.467.215.628.132.188.277.24.435.156.084-.045-.105-.506-.567-1.383ZM15.804 4.506a.14.14 0 0 1 .061.06c.012.025.012.06 0 .108-.01.048-.014.076-.01.086l.822 1.69a.266.266 0 0 0 .061.064.26.26 0 0 1 .063.069c.021.043-.001.093-.067.149-.034.028-.132.059-.293.092-.175.036-.279.039-.312.007-.028-.026-.044-.07-.05-.133a.498.498 0 0 0-.028-.148.595.595 0 0 0-.057-.09c.022.14.024.272.004.398-.026.15-.079.245-.16.283a.97.97 0 0 1-.36.072c-.16.007-.26-.007-.301-.044-.144-.122-.457-.678-.939-1.669a.391.391 0 0 1-.096-.124c-.037-.075-.033-.14.01-.193a.287.287 0 0 1 .086-.055c.082-.04.187-.075.313-.104.127-.03.21-.037.246-.023a.08.08 0 0 1 .042.039c.013.026.015.078.008.155-.008.077-.005.129.008.156.46.956.7 1.434.723 1.431.04-.004.072-.157.094-.46.023-.302.004-.515-.056-.639l-.331-.68a.176.176 0 0 1-.104-.093c-.046-.094-.036-.178.03-.252a.112.112 0 0 1 .04-.028c.066-.032.17-.063.31-.094.142-.03.223-.04.243-.03ZM18.216 6.146a.174.174 0 0 1-.067.043c-.066.022-.204-.018-.412-.122l.246.74c.01.019.034.051.072.097a.38.38 0 0 1 .07.106c.017.054-.01.093-.082.117a1.16 1.16 0 0 1-.298.039 8.317 8.317 0 0 1-.247.001c-.07.003-.121-.024-.152-.082a.388.388 0 0 1-.02-.159.944.944 0 0 0-.006-.138l-.834-2.494a.43.43 0 0 0-.073-.155c-.06-.05-.086-.092-.079-.122.003-.024.033-.045.09-.064a1.6 1.6 0 0 1 .277-.054c.145-.017.223-.027.233-.03.045-.01.089.01.13.059a.23.23 0 0 1 .022.052c.035.105.072.266.11.483.02-.143.042-.285.063-.425.03-.183.082-.28.156-.29.537-.062.892.166 1.066.685.098.293.118.615.06.965-.059.35-.167.6-.325.748Zm-.68-1.753c-.096.02-.045.515.15 1.486.123-.112.206-.295.25-.55a1.36 1.36 0 0 0-.027-.664c-.073-.217-.197-.308-.373-.272ZM21.275 5.428a.175.175 0 0 1-.073.032c-.07.012-.199-.05-.388-.187l.125.77a.58.58 0 0 0 .055.107c.03.051.047.09.052.117.009.056-.024.09-.099.102-.066.01-.167.007-.3-.009a8.28 8.28 0 0 1-.245-.038c-.07-.008-.115-.043-.136-.105a.387.387 0 0 1 .004-.16.915.915 0 0 0 .017-.138l-.423-2.594a.43.43 0 0 0-.047-.164c-.051-.06-.07-.105-.059-.134.007-.023.04-.04.099-.049.061-.01.155-.013.282-.009.146.007.224.009.235.007.046-.002.086.025.12.08a.235.235 0 0 1 .013.054c.017.11.028.274.03.494l.131-.41c.06-.175.126-.262.2-.26.54.024.855.305.943.845.05.305.018.626-.096.962-.114.336-.26.565-.44.687Zm-.39-1.839c-.098.005-.128.502-.09 1.491.138-.09.25-.258.335-.504a1.36 1.36 0 0 0 .079-.659c-.037-.226-.145-.335-.324-.328ZM24.192 5.077a.14.14 0 0 1-.046.099.12.12 0 0 1-.1.035c-.337-.035-.525-.092-.565-.172a.072.072 0 0 1-.01-.032c0-.013.006-.028.017-.045a.119.119 0 0 0 .021-.043.09.09 0 0 1 .015-.035.655.655 0 0 0 0-.14.81.81 0 0 0-.14.197c-.064.118-.12.2-.17.248a.422.422 0 0 1-.292.13.3.3 0 0 1-.193-.07 2.076 2.076 0 0 1-.163-.153 18.214 18.214 0 0 1-.218-.231.362.362 0 0 1-.092-.211c0-.022.001-.043.006-.065.044-.238.196-.468.456-.69.19-.159.46-.33.812-.513-.003-.087-.027-.141-.07-.164-.028-.015-.122.018-.281.1-.16.082-.271.15-.334.206-.021.023-.056.053-.103.092-.045.029-.087.038-.125.029-.03-.008-.095-.054-.195-.14-.1-.085-.154-.143-.163-.172-.024-.072-.003-.13.063-.172.003-.003.056-.02.16-.053l.295-.171a1.5 1.5 0 0 1 .53-.179c.062-.004.133.026.214.09.072.06.145.12.218.177.074.059.15.115.227.17.088.072.134.143.136.213l.049 1.525c.029.07.042.116.04.14Zm-.686-1.157a.876.876 0 0 0-.333.244c-.068.089-.135.176-.203.261a.974.974 0 0 0-.153.225.484.484 0 0 0-.068.202c0 .022.009.032.025.032.057-.002.18-.128.37-.377.189-.25.31-.446.362-.587ZM26.673 2.225a.387.387 0 0 1-.044.155.919.919 0 0 0-.05.129l-.23 2.623c-.007.088-.005.144.007.166.034.074.042.121.024.144-.016.02-.052.028-.108.023a1.678 1.678 0 0 1-.28-.06 4.743 4.743 0 0 0-.222-.064c-.048-.01-.08-.045-.096-.106a.181.181 0 0 1 0-.053c.01-.11.039-.272.087-.486-.075.123-.15.246-.223.37-.103.15-.189.215-.257.196-.521-.154-.758-.501-.71-1.043.026-.308.138-.615.336-.919.191-.294.39-.48.594-.556a.173.173 0 0 1 .078-.014c.068.006.178.1.33.28l.068-.78a.59.59 0 0 0-.026-.118.384.384 0 0 1-.022-.126c.005-.056.045-.08.12-.074.068.006.163.033.287.081.078.034.155.067.231.098.066.024.101.07.106.134Zm-.793.977c-.157.054-.306.19-.449.407a1.362 1.362 0 0 0-.239.62c-.02.227.058.36.234.397.093.019.244-.456.454-1.424ZM29.133 2.69c0 .027-.02.077-.061.148a.916.916 0 0 0-.065.123l-.53 2.579c-.018.087-.022.142-.013.166.025.077.028.125.007.146-.017.018-.054.022-.11.01a1.692 1.692 0 0 1-.27-.092 4.578 4.578 0 0 0-.214-.089c-.046-.015-.074-.053-.083-.116a.188.188 0 0 1 .006-.052c.022-.108.07-.266.143-.474-.09.114-.178.228-.265.342-.119.138-.212.193-.278.166-.5-.212-.695-.584-.586-1.117.063-.303.21-.595.44-.874.225-.27.443-.432.655-.485a.173.173 0 0 1 .08-.005c.066.014.164.119.294.316l.158-.767a.581.581 0 0 0-.012-.12.382.382 0 0 1-.007-.128c.01-.055.054-.075.128-.06.066.014.158.051.274.114l.22.123c.062.032.092.08.09.146Zm-.9.88c-.162.035-.326.153-.493.352-.166.2-.27.396-.309.589-.046.224.016.364.187.42.09.03.295-.424.615-1.362ZM30.504 3.056a.232.232 0 0 1-.04.068 2.155 2.155 0 0 0-.039.051 1.846 1.846 0 0 0-.12.226l-.725 2.37a.158.158 0 0 0-.002.091c.008.03.01.052.005.067-.05.165-.109.244-.175.238-.025-.002-.102-.044-.23-.127-.129-.082-.204-.14-.225-.171-.042-.067-.057-.12-.044-.162.003-.01.012-.02.026-.03.014-.01.026-.03.036-.06l.833-2.723a.106.106 0 0 0 .001-.053.108.108 0 0 1 .001-.052c.024-.06.085-.087.182-.08a1.284 1.284 0 0 1 .398.167c.096.063.136.123.118.18ZM31.637 6.083c.009.046-.084.139-.277.278-.207.149-.388.234-.541.256a.172.172 0 0 1-.073-.015 1.232 1.232 0 0 1-.35-.238c-.146-.125-.232-.233-.258-.324-.073-.244-.046-.533.083-.867.122-.317.294-.571.516-.763.24-.21.47-.278.685-.2.08.027.166.083.26.168.117.105.201.22.255.344.014.031.009.107-.015.228-.02.13-.054.253-.099.369-.065.17-.139.278-.22.322a3.177 3.177 0 0 1-.848-.165 1.417 1.417 0 0 0-.104.406c-.017.15-.007.232.03.25.05.021.126.003.23-.055a.596.596 0 0 0 .188-.14c.046-.069.1-.138.162-.206.042.01.114.06.215.151.1.09.155.158.161.2ZM31.41 4.67c-.04-.021-.127.024-.258.135a1.145 1.145 0 0 0-.29.352.52.52 0 0 0 .304.021c.052-.014.121-.132.206-.353.036-.093.049-.145.038-.155ZM34.99 6.394a1.106 1.106 0 0 1-.166.46 2.56 2.56 0 0 1-.547.63c-.224.187-.43.316-.617.388a3.783 3.783 0 0 0-.064.06.172.172 0 0 1-.079.038c-.048.007-.11-.012-.189-.055a.423.423 0 0 1-.161-.18c-.005-.008-.034-.08-.089-.215a.452.452 0 0 0-.02.09.112.112 0 0 1-.038.063c-.049.04-.095.05-.14.03a1.105 1.105 0 0 1-.258-.224c-.115-.123-.174-.207-.175-.252-.002-.029.033-.063.103-.103a.433.433 0 0 0 .104-.136l1.387-2.335c.006-.012.008-.04.005-.084-.004-.044.004-.077.022-.097.058-.066.128-.075.209-.027.077.045.164.126.263.244.098.117.144.205.137.264-.003.026-.032.059-.089.098a.578.578 0 0 0-.122.106l-.338.57c.3-.077.503-.075.609.006a.616.616 0 0 1 .184.269c.058.13.08.261.069.392Zm-.42-.22a1.155 1.155 0 0 0-.427.035c-.175.041-.299.089-.371.143l-.557.938c.005.028.02.066.046.112.069.06.263-.056.583-.347.311-.282.534-.535.667-.76a.61.61 0 0 0 .058-.12ZM36.806 7.372c.075.145.08.327.015.545-.06.198-.171.402-.332.611a2.23 2.23 0 0 1-.725.638c-.283.143-.498.142-.645-.004a5.683 5.683 0 0 0-.228-.26 1.768 1.768 0 0 1-.202-.23c-.097-.126-.115-.304-.054-.535.059-.213.172-.429.34-.647.168-.22.356-.393.563-.52.228-.138.442-.194.643-.166.033.005.07.023.111.054.043.033.117.111.222.235.082.063.179.155.292.279Zm-.582.013c-.058-.044-.166-.015-.323.088a1.53 1.53 0 0 0-.383.346c-.118.154-.216.32-.295.497-.084.193-.104.317-.06.37.057.068.177.038.36-.09a2.25 2.25 0 0 0 .492-.48 1.61 1.61 0 0 0 .207-.356c.083-.188.083-.312.002-.375ZM37.412 10.925a.142.142 0 0 1-.102.036.12.12 0 0 1-.096-.048c-.207-.265-.296-.44-.267-.524a.072.072 0 0 1 .017-.03.076.076 0 0 1 .044-.018.117.117 0 0 0 .046-.015.09.09 0 0 1 .036-.013.65.65 0 0 0 .101-.099.814.814 0 0 0-.24.037c-.13.036-.228.053-.297.05a.422.422 0 0 1-.297-.12.295.295 0 0 1-.083-.187 2.033 2.033 0 0 1-.002-.223c.009-.194.014-.3.016-.317a.362.362 0 0 1 .089-.212.266.266 0 0 1 .051-.04c.203-.134.474-.184.815-.15.247.025.558.1.934.225.06-.062.084-.116.07-.164-.008-.03-.097-.074-.267-.132a1.744 1.744 0 0 0-.38-.097c-.031 0-.077-.003-.138-.01-.052-.012-.088-.035-.107-.07-.016-.026-.027-.105-.035-.236-.007-.131-.003-.21.012-.237.035-.067.091-.092.168-.074.004 0 .054.026.15.079.11.03.219.062.328.093.22.075.386.16.496.256.046.042.074.114.083.216l.023.28c.01.093.02.186.035.279.01.114-.01.196-.06.246l-1.07 1.093a.387.387 0 0 1-.073.126Zm.363-1.295a.881.881 0 0 0-.408-.069c-.11.013-.22.025-.33.035a.982.982 0 0 0-.268.047.488.488 0 0 0-.194.09c-.015.016-.017.03-.005.04.04.04.217.041.529.004.312-.037.537-.086.676-.147ZM40.23 11.072c-.027.036-.064.047-.11.033a1.074 1.074 0 0 0-.1-.038l-1.251.133c-.331.273-.501.414-.51.425-.009.01-.029.04-.06.089a.466.466 0 0 1-.085.104c-.04.032-.081.037-.125.014a.3.3 0 0 1-.093-.08.988.988 0 0 1-.164-.306c-.058-.155-.055-.259.01-.312a.372.372 0 0 1 .11-.05.377.377 0 0 0 .125-.06l1.237-1.018c.098-.118.149-.18.153-.183.065-.053.13-.057.194-.013a.49.49 0 0 1 .085.083c.06.072.111.158.153.258.043.1.056.168.041.204a.09.09 0 0 1-.026.032c-.01.01-.072.036-.186.08l-.15.124.39-.075c.166-.028.265-.03.297-.003.046.038.077.13.092.275.015.145.006.24-.028.284ZM42.227 12.272a.392.392 0 0 1-.148.063.921.921 0 0 0-.133.042l-2.195 1.466c-.074.05-.116.086-.127.11-.036.072-.068.108-.097.108-.026 0-.054-.022-.086-.07a1.67 1.67 0 0 1-.128-.254 4.478 4.478 0 0 0-.09-.213c-.022-.043-.014-.09.023-.14a.183.183 0 0 1 .042-.033c.092-.062.237-.141.435-.238-.144.018-.287.038-.43.058-.181.015-.286-.01-.314-.076-.207-.5-.083-.902.37-1.205.258-.172.568-.277.93-.315.35-.036.619.002.807.112a.173.173 0 0 1 .06.053c.038.056.034.2-.012.431l.653-.436a.585.585 0 0 0 .076-.094.384.384 0 0 1 .084-.096c.047-.031.092-.016.134.047.038.056.076.147.115.273.023.082.046.162.07.24.022.067.009.122-.04.167Zm-1.262-.003c-.14-.088-.34-.119-.599-.093-.26.026-.47.093-.635.202-.19.128-.245.271-.164.43.044.085.51-.095 1.398-.54Z"/>
      </g>
      <g fill="#322C2C" fill-rule="nonzero">
        <path d="M9.84 39.106a.658.658 0 0 1-.484.218c-.185.001-.364-.077-.538-.235a.708.708 0 0 1-.118-.152 3.642 3.642 0 0 0-.217-.337.36.36 0 0 1-.061-.185.691.691 0 0 1 .089-.35c.077-.162.119-.268.127-.32 0-.03.007-.075.023-.135a.165.165 0 0 1 .099-.07.157.157 0 0 1 .112.003.328.328 0 0 1 .07.055c.068.065.144.153.227.263.082.11.123.178.122.203-.002.025-.053.11-.155.255-.094.134-.13.224-.108.271a.08.08 0 0 0 .02.03c.038.036.099.036.184 0a.73.73 0 0 0 .24-.171c.162-.17.218-.333.166-.49-.117-.36-.171-.643-.163-.847a.832.832 0 0 1 .285-.6 1.29 1.29 0 0 1 .584-.29c.239-.058.425-.048.556.03.055.032.15.205.288.518.036.075.072.152.107.23a.453.453 0 0 1 .04.235c-.01.12-.095.264-.256.432a6.56 6.56 0 0 1-.134.134c-.053.05-.09.087-.11.108a.506.506 0 0 0-.044.087.173.173 0 0 1-.05.075c-.085.082-.167.095-.245.04-.045-.031-.103-.115-.175-.25-.082-.149-.118-.26-.108-.332a.216.216 0 0 1 .05-.064c.028-.029.095-.092.2-.189.107-.096.182-.168.227-.215.08-.083.11-.133.088-.15-.064-.054-.156-.058-.275-.014a.889.889 0 0 0-.33.225c-.169.175-.236.349-.204.521l.139.557c.042.178.05.323.025.436-.035.146-.133.302-.294.47ZM12.572 39.102a.141.141 0 0 1-.029.081c-.017.021-.05.036-.097.046-.048.01-.075.02-.082.028l-1.18 1.465a.256.256 0 0 0-.032.082.254.254 0 0 1-.035.086c-.03.038-.085.04-.164.004-.04-.019-.11-.093-.21-.224-.107-.142-.154-.234-.14-.278.012-.035.044-.07.098-.102a.494.494 0 0 0 .123-.089.597.597 0 0 0 .057-.09c-.116.08-.236.139-.359.175-.147.041-.255.034-.325-.022a.965.965 0 0 1-.22-.294c-.075-.14-.105-.236-.09-.29.05-.18.42-.7 1.111-1.56.015-.053.04-.1.071-.14.053-.065.112-.09.18-.074a.29.29 0 0 1 .086.054c.072.057.148.136.23.237.081.101.123.172.126.212a.08.08 0 0 1-.018.054c-.018.023-.064.047-.137.073-.073.027-.119.051-.138.074-.67.824-.999 1.246-.987 1.266.02.034.173-.003.457-.113.284-.11.47-.218.556-.325l.474-.59a.175.175 0 0 1 .04-.133c.066-.082.146-.109.242-.081.011.002.026.01.043.024.056.045.13.125.218.239.088.114.132.182.13.205ZM12.325 41.758a.173.173 0 0 1-.076-.024c-.06-.038-.113-.17-.162-.398l-.424.655a.582.582 0 0 0-.032.117.385.385 0 0 1-.04.12c-.031.048-.078.051-.142.01a1.153 1.153 0 0 1-.218-.207 7.955 7.955 0 0 1-.155-.191c-.047-.053-.057-.109-.031-.169a.392.392 0 0 1 .111-.116.948.948 0 0 0 .105-.09l1.43-2.21a.432.432 0 0 0 .076-.153c.003-.078.018-.125.046-.138.021-.013.057-.003.107.03a1.6 1.6 0 0 1 .215.181c.104.102.16.156.17.162.035.03.047.076.036.138a.227.227 0 0 1-.028.05c-.06.093-.163.222-.309.388l.373-.218c.162-.09.27-.111.323-.06.385.378.43.797.132 1.257-.169.26-.408.477-.718.65-.31.174-.574.246-.79.216Zm.947-1.625c-.076-.062-.432.287-1.07 1.047.164.025.36-.025.588-.15.228-.127.395-.272.502-.437.125-.193.118-.346-.02-.46ZM16.642 40.52a.22.22 0 0 1-.09.11c-.049.034-.087.044-.116.028-.017-.008-.034-.031-.052-.07-.018-.04-.037-.066-.058-.078-.104-.071-.208.007-.313.235l-.052.114-.043.105.118.053c.027.013.06.08.098.204.038.124.048.204.029.24a.226.226 0 0 1-.099.097c-.042.022-.08.026-.112.011a.952.952 0 0 0-.248-.14l-.664 1.452c-.009.02-.01.05-.003.09.007.04.003.07-.012.09-.052.074-.123.093-.214.058a1.078 1.078 0 0 1-.254-.195c-.127-.117-.186-.199-.177-.245.003-.02.028-.051.075-.097a.416.416 0 0 0 .091-.111l.596-1.3-.126-.058c-.047-.02-.085-.088-.115-.2-.03-.113-.034-.194-.011-.243a.158.158 0 0 1 .085-.081.135.135 0 0 1 .113-.002l.265.12c.124-.269.226-.45.306-.54.179-.197.39-.24.633-.13.032.015.064.031.095.048.074.046.139.124.195.235.05.097.07.164.06.2ZM17.545 41.646c.115.118.173.29.174.518 0 .207-.046.434-.138.68-.128.341-.297.615-.507.82-.23.22-.435.281-.618.185a5.509 5.509 0 0 0-.295-.183 1.783 1.783 0 0 1-.26-.162c-.13-.091-.2-.256-.208-.495-.006-.22.038-.46.135-.717.097-.26.226-.48.387-.662.178-.198.367-.313.566-.345a.257.257 0 0 1 .123.02c.05.018.144.072.281.16.096.036.216.096.36.181Zm-.552.183c-.069-.026-.163.033-.283.177-.12.143-.209.29-.266.442a2.418 2.418 0 0 0-.136.561c-.024.21-.007.334.05.372.075.048.181-.016.319-.191.133-.17.242-.37.33-.602.047-.129.079-.262.093-.4.025-.204-.011-.324-.107-.36ZM19.503 42.402c0 .045-.024.075-.07.09-.036.007-.07.016-.104.026l-.944.83c-.112.412-.169.626-.17.64 0 .013 0 .05.003.107a.462.462 0 0 1-.01.133c-.013.05-.044.078-.093.084a.299.299 0 0 1-.123-.012.99.99 0 0 1-.31-.155c-.138-.093-.195-.18-.174-.26a.369.369 0 0 1 .063-.105.378.378 0 0 0 .066-.12l.42-1.543c.01-.153.016-.233.018-.238.022-.08.072-.121.15-.122a.49.49 0 0 1 .117.019c.092.024.183.065.276.122.092.057.142.105.152.143a.088.088 0 0 1-.003.042 1.48 1.48 0 0 1-.106.172l-.05.187c.092-.095.184-.19.274-.286.12-.118.2-.176.24-.173.06.005.14.062.235.172.097.11.144.192.143.247ZM21.23 41.68a.234.234 0 0 1-.028.074c-.017.03-.027.05-.03.057a1.842 1.842 0 0 0-.084.241l-.341 2.456a.159.159 0 0 0 .012.09c.013.027.018.049.016.065-.024.17-.07.258-.135.262-.025.002-.107-.028-.248-.089-.14-.061-.223-.106-.25-.134-.05-.06-.074-.11-.068-.152.002-.011.009-.022.021-.034.013-.012.021-.034.026-.066l.392-2.82a.106.106 0 0 0-.007-.051.107.107 0 0 1-.007-.052c.014-.064.07-.1.166-.108a1.289 1.289 0 0 1 .42.103c.105.047.153.1.145.158ZM22.316 42.096a.084.084 0 0 1 0 .032.974.974 0 0 1-.067.224c-.04.098-.073.15-.099.158-.028.007-.14-.037-.334-.132s-.296-.158-.305-.19a.12.12 0 0 1-.004-.061.545.545 0 0 1 .086-.22c.055-.086.11-.13.165-.134.063-.002.167.035.312.113s.227.148.246.21Zm-.382 2.764c-.003.097-.044.153-.125.167-.014 0-.033 0-.057-.004a1.377 1.377 0 0 1-.35-.108c-.146-.063-.23-.12-.25-.171-.01-.024.007-.063.053-.12a.47.47 0 0 0 .065-.215l.225-1.68a.867.867 0 0 1-.02-.211c.004-.035.056-.046.155-.033.08.011.19.05.326.119.136.068.217.123.241.165a.065.065 0 0 1 .007.041.345.345 0 0 1-.062.114.33.33 0 0 0-.064.126l-.216 1.609c-.003.027.008.062.033.106a.24.24 0 0 1 .039.095ZM23.88 41.991a.22.22 0 0 1-.04.136c-.032.05-.064.073-.097.07-.018-.001-.044-.016-.075-.046s-.06-.046-.083-.05c-.124-.026-.19.086-.2.337l-.004.125v.113l.13.005c.029 0 .085.051.168.151s.122.17.118.21a.225.225 0 0 1-.054.128c-.03.037-.064.054-.099.053a.951.951 0 0 0-.283-.035l-.06 1.594c0 .022.01.05.032.084s.03.064.023.088c-.02.088-.078.133-.175.135a1.08 1.08 0 0 1-.31-.085c-.162-.06-.248-.113-.257-.159-.005-.019.006-.058.033-.118a.414.414 0 0 0 .041-.137l.054-1.429-.138-.005c-.051-.002-.112-.05-.183-.142-.071-.093-.106-.166-.103-.22a.156.156 0 0 1 .048-.107.135.135 0 0 1 .103-.045l.292.01c.01-.295.036-.5.076-.615.09-.25.27-.37.536-.36l.105.009a.563.563 0 0 1 .271.143c.084.07.128.125.132.162ZM25.498 44.263c.026.04-.021.161-.143.366-.132.218-.264.367-.396.448a.167.167 0 0 1-.072.015 1.231 1.231 0 0 1-.417-.08c-.184-.058-.305-.123-.365-.196-.165-.196-.254-.472-.269-.83-.013-.339.043-.64.17-.904.138-.288.321-.44.55-.454a.802.802 0 0 1 .307.052 1 1 0 0 1 .37.216c.025.023.05.095.077.215.032.128.05.254.056.378.007.183-.017.31-.074.383-.275.1-.556.16-.845.183 0 .132.022.27.066.413.043.144.086.216.126.218.054 0 .117-.047.19-.141a.593.593 0 0 0 .117-.203c.016-.082.038-.166.067-.253.043-.007.129.01.257.054.13.044.205.084.228.12Zm-.77-1.205c-.046-.004-.108.071-.184.225-.076.154-.118.3-.126.438a.52.52 0 0 0 .288-.1c.042-.035.058-.17.048-.407-.004-.1-.013-.152-.026-.156ZM28.15 43.328a.343.343 0 0 1-.13.039.612.612 0 0 1-.122-.004.621.621 0 0 0-.154.001l-.611.105a.193.193 0 0 0-.097.06c-.035.034-.067.052-.097.055-.054.003-.102-.02-.143-.068a6.836 6.836 0 0 1-.12-.146 5.172 5.172 0 0 1-.11-.102c-.038-.036-.059-.065-.063-.09a.19.19 0 0 1 .022-.138.187.187 0 0 1 .095-.09c.051-.006.137-.02.257-.04.1-.025.198-.049.296-.07.21-.05.379-.086.504-.107.149-.026.237-.031.264-.017.055.03.11.099.168.21.05.1.082.189.095.266.01.06-.008.106-.055.136ZM31.246 43.242c.008.13-.017.219-.076.266a.179.179 0 0 1-.082.03c-.036.006-.06.015-.074.028l-.494.42c-.016.014-.027.042-.035.084-.008.042-.02.068-.036.08-.05.038-.176.057-.378.056-.202 0-.33-.02-.385-.06-.041-.031-.071-.092-.089-.183a.83.83 0 0 0-.023-.098l-.831-2.584a.147.147 0 0 0-.052-.056c-.022-.013-.034-.026-.038-.038-.01-.05.023-.1.1-.151.05-.03.173-.048.37-.055.222-.006.347.03.376.11.006.02.002.055-.013.105-.015.05-.02.086-.013.106l.684 2.126.346-.3a.509.509 0 0 1 .109-.112c.034-.017.148.007.342.071.194.064.291.116.292.155ZM31.85 41.029c.164.006.325.092.483.256.143.15.266.347.37.59.142.335.208.649.197.942-.015.317-.122.502-.322.557-.077.012-.19.035-.34.069a1.77 1.77 0 0 1-.3.06c-.158.023-.322-.05-.493-.217a1.892 1.892 0 0 1-.397-.613 2.1 2.1 0 0 1-.176-.746c-.007-.265.05-.478.173-.638a.255.255 0 0 1 .103-.07c.05-.02.155-.046.315-.076.095-.04.224-.078.387-.114Zm-.276.51c-.067.029-.095.136-.083.323.012.186.05.354.112.502.076.179.172.346.288.502.127.168.225.247.294.236.087-.017.12-.136.099-.358a2.235 2.235 0 0 0-.176-.662 1.608 1.608 0 0 0-.208-.355c-.123-.165-.231-.227-.326-.188ZM35.924 41.14c.045.033.08.072.105.116.04.07.041.133.002.19a.29.29 0 0 1-.081.06c-.08.047-.182.089-.306.127-.124.04-.205.054-.242.044a.081.081 0 0 1-.044-.036c-.014-.026-.02-.077-.019-.154.002-.078-.004-.129-.019-.155-.527-.921-.801-1.38-.824-1.377-.044.01-.067.146-.069.408-.002.287.043.51.134.669l.397.685c.047.044.08.082.097.112.034.058.03.12-.014.185a.286.286 0 0 1-.082.061c-.08.046-.181.088-.306.127-.124.039-.204.053-.241.043a.055.055 0 0 1-.035-.027.38.38 0 0 1-.021-.155.374.374 0 0 0-.026-.162c-.527-.922-.802-1.38-.825-1.377-.04.007-.06.158-.06.454 0 .311.033.526.102.645l.378.654a.176.176 0 0 1 .11.086c.052.089.047.172-.013.25a.112.112 0 0 1-.039.032 1.5 1.5 0 0 1-.302.115c-.139.04-.22.056-.246.045a.12.12 0 0 1-.057-.05c-.014-.024-.016-.06-.008-.108s.01-.077.004-.086l-.941-1.627a.178.178 0 0 0-.07-.057c-.037-.02-.058-.042-.063-.067-.014-.057.004-.11.054-.157.033-.03.128-.068.286-.113.172-.048.276-.057.313-.025.024.02.043.06.056.121.021.097.036.15.042.162.015.026.036.051.063.076a1.254 1.254 0 0 1-.033-.396c.014-.154.06-.253.137-.297a.925.925 0 0 1 .356-.088c.152-.013.253-.007.304.016.038.016.11.087.216.212l-.01-.4c.01-.164.052-.267.125-.309a.95.95 0 0 1 .356-.095c.158-.018.26-.01.304.024.152.112.503.644 1.055 1.598ZM38.57 39.038c.05.026.09.059.122.098.052.063.062.125.033.187a.29.29 0 0 1-.07.073 1.543 1.543 0 0 1-.282.174c-.117.058-.194.085-.232.081a.08.08 0 0 1-.049-.028c-.019-.023-.033-.072-.044-.15-.01-.076-.025-.125-.043-.148-.668-.826-1.014-1.235-1.035-1.228-.042.017-.043.154-.002.413.043.284.123.497.24.639l.501.613a.54.54 0 0 1 .114.095c.043.052.048.114.016.185a.288.288 0 0 1-.071.074 1.543 1.543 0 0 1-.282.173c-.116.058-.193.085-.231.081a.056.056 0 0 1-.038-.02.383.383 0 0 1-.047-.15.371.371 0 0 0-.052-.156c-.668-.826-1.013-1.236-1.035-1.228-.038.013-.033.166.014.458.049.307.117.514.204.62l.479.586c.05.005.09.027.122.067.065.079.074.162.027.25a.113.113 0 0 1-.033.036c-.057.046-.15.1-.28.162-.13.063-.209.09-.235.084a.118.118 0 0 1-.065-.041c-.017-.021-.025-.056-.025-.104 0-.05-.003-.078-.01-.086l-1.19-1.456a.178.178 0 0 0-.08-.045c-.038-.014-.062-.033-.071-.056-.024-.054-.014-.11.028-.164.027-.036.115-.088.264-.157.161-.075.263-.1.304-.075.028.016.053.053.075.11.037.093.06.144.068.154a.331.331 0 0 0 .074.065 1.258 1.258 0 0 1-.096-.385c-.01-.155.018-.26.088-.316a.925.925 0 0 1 .337-.143c.148-.037.249-.048.303-.033.04.01.122.068.247.175l-.075-.393c-.016-.164.009-.272.074-.325a.951.951 0 0 1 .337-.15c.153-.043.254-.052.303-.026.168.086.601.556 1.299 1.41ZM40.21 37.518a.14.14 0 0 1 .037.102c0 .04-.015.072-.045.096-.261.213-.435.306-.52.28a.07.07 0 0 1-.029-.017.076.076 0 0 1-.02-.043.119.119 0 0 0-.016-.046.09.09 0 0 1-.015-.035.651.651 0 0 0-.1-.099c-.005.04.01.12.042.239.04.128.059.226.058.295a.418.418 0 0 1-.112.298.298.298 0 0 1-.187.087 2.035 2.035 0 0 1-.223.008 15.353 15.353 0 0 1-.319-.008.365.365 0 0 1-.215-.083.262.262 0 0 1-.042-.05c-.14-.198-.197-.468-.171-.808.02-.246.087-.558.203-.936-.064-.058-.12-.08-.166-.065-.03.009-.073.098-.126.269a1.73 1.73 0 0 0-.088.382c.001.03 0 .076-.006.137-.012.052-.034.088-.068.108-.026.017-.105.03-.236.04-.132.011-.211.01-.239-.005-.068-.033-.094-.089-.077-.165 0-.004.024-.055.074-.152l.085-.329c.07-.221.152-.388.245-.5.04-.047.112-.077.215-.088l.28-.03c.093-.012.186-.026.28-.043.114-.012.196.006.248.054l1.123 1.038c.07.028.113.05.13.07Zm-1.31-.328a.873.873 0 0 0-.059.408c.016.11.03.219.044.327a.98.98 0 0 0 .053.267.487.487 0 0 0 .096.19c.016.015.03.016.04.005.04-.042.036-.218-.01-.527-.044-.31-.1-.533-.164-.67Z"/>
      </g>
      <g fill="#322C2C" fill-rule="nonzero">
        <path d="m2.716 24.375-.006.071a.08.08 0 0 1-.014.045.058.058 0 0 1-.028.005.433.433 0 0 1-.136-.028.257.257 0 0 1-.12-.063c-.008-.01-.017-.043-.026-.1a1.325 1.325 0 0 0-.041-.182 1.24 1.24 0 0 0-.184.045.698.698 0 0 0-.158.062 4.564 4.564 0 0 1-.066.175.762.762 0 0 1-.01.044.057.057 0 0 1-.03.034.027.027 0 0 1-.015.003.396.396 0 0 1-.133-.041c-.063-.028-.095-.046-.097-.055-.005-.015.006-.053.031-.114.035-.088.056-.142.061-.162-.023-.023-.034-.046-.034-.07l.001-.017c.002-.014.036-.037.101-.071l.214-.729a.279.279 0 0 0 .002-.072c-.002-.03.001-.049.01-.057.005-.005.019-.008.04-.008a.91.91 0 0 1 .222.04c.096.026.154.05.172.07.007.123.032.306.075.55.055.303.112.51.17.625Zm-.433-.502a2.146 2.146 0 0 1-.051-.367 2.892 2.892 0 0 0-.078.225c-.032.1-.05.163-.051.188.02-.008.08-.024.18-.046ZM3.787 23.17a.092.092 0 0 1-.006.034.259.259 0 0 0-.015.045v1.09l.008.061c.007.05 0 .084-.02.1-.02.015-.064.019-.134.012a.589.589 0 0 1-.138-.031c-.067-.021-.104-.043-.11-.066a.376.376 0 0 0-.006-.071 16.952 16.952 0 0 0-.215-.537v.489c0 .009.003.02.011.035l.015.03a.155.155 0 0 1 .008.049c0 .044-.02.066-.06.066a.6.6 0 0 1-.163-.033c-.067-.022-.104-.04-.113-.051-.013-.018-.013-.04 0-.068a.188.188 0 0 0 .02-.051v-1.036a.135.135 0 0 0-.005-.03.063.063 0 0 1-.002-.03.11.11 0 0 1 .065-.077.56.56 0 0 1 .17.013c.057.014.098.032.122.056.03.033.07.134.12.303.061.207.109.347.143.42v-.65a.151.151 0 0 0-.006-.037.15.15 0 0 1-.007-.037c0-.007.001-.013.003-.018.006-.02.027-.033.063-.042a.242.242 0 0 1 .083-.008.51.51 0 0 1 .091.018c.051.016.077.033.078.051ZM4.873 23.17a.092.092 0 0 1-.006.034.259.259 0 0 0-.015.045v1.09l.008.061c.007.05 0 .084-.02.1-.02.015-.064.019-.134.012a.589.589 0 0 1-.138-.031c-.067-.021-.104-.043-.11-.066a.376.376 0 0 0-.006-.071 16.952 16.952 0 0 0-.215-.537v.489c0 .009.004.02.011.035l.015.03a.155.155 0 0 1 .009.049c0 .044-.02.066-.06.066a.6.6 0 0 1-.164-.033c-.067-.022-.104-.04-.113-.051-.013-.018-.013-.04 0-.068a.188.188 0 0 0 .02-.051v-1.036a.135.135 0 0 0-.005-.03.063.063 0 0 1-.002-.03.11.11 0 0 1 .065-.077.56.56 0 0 1 .17.013c.058.014.098.032.122.056.03.033.071.134.12.303.062.207.11.347.143.42v-.65a.151.151 0 0 0-.006-.037.15.15 0 0 1-.007-.037c0-.007.001-.013.003-.018.006-.02.027-.033.063-.042a.242.242 0 0 1 .083-.008.51.51 0 0 1 .092.018c.05.016.076.033.077.051ZM5.584 24.492a.236.236 0 0 1-.083-.009 3.194 3.194 0 0 1-.09-.025 3.6 3.6 0 0 1-.165-.048.398.398 0 0 1-.213-.228.934.934 0 0 1-.063-.363c0-.116.02-.25.063-.405.058-.207.132-.31.224-.31.008 0 .02.001.034.005a.291.291 0 0 0 .034.008.893.893 0 0 1 .168-.035c.011 0 .023 0 .035.002.14.016.251.099.332.247.073.135.11.295.11.481a.975.975 0 0 1-.099.454c-.07.138-.166.213-.287.226Zm-.032-1.21c-.025-.007-.05.026-.076.097-.025.072-.051.108-.077.108a.06.06 0 0 1-.025-.01.093.093 0 0 0-.028-.01c-.04.082-.06.2-.06.353 0 .12.014.223.041.31.03.095.073.148.127.158.063.01.114-.05.153-.184.034-.116.051-.255.051-.416 0-.109-.009-.2-.026-.274-.02-.08-.046-.123-.08-.132ZM42.844 24.278c.003.032-.018.054-.062.067a.251.251 0 0 0-.063.002c-.02 0-.082.016-.187.048a1.592 1.592 0 0 0-.264.093.165.165 0 0 0-.042.03c-.013.013-.02.02-.024.02-.017.001-.065-.027-.144-.087a1.126 1.126 0 0 1-.067-.043c-.022-.015-.033-.033-.035-.054 0-.008.048-.08.145-.217.118-.167.21-.307.275-.42.1-.176.155-.317.162-.42a.637.637 0 0 0-.258.237c-.007.006-.011.016-.013.031-.001.015-.004.025-.009.03a.057.057 0 0 1-.048.022.252.252 0 0 1-.133-.053l-.066-.036c-.026-.014-.04-.027-.041-.038-.003-.025.025-.074.083-.147.061-.077.13-.143.205-.197a.42.42 0 0 1 .239-.099c.027 0 .052.009.075.026l.07.052c.089.062.146.12.17.175a.117.117 0 0 1 .007.043c0 .077-.041.202-.123.376a2.62 2.62 0 0 1-.249.428c.035-.01.082-.027.143-.05a.3.3 0 0 0 .035-.022.046.046 0 0 1 .031-.01c.027.003.064.034.112.093s.073.099.076.12ZM43.85 23.148c.064.012.116.07.154.172.035.096.052.214.052.357 0 .165-.027.328-.082.488-.078.23-.191.346-.34.346a.325.325 0 0 1-.088-.015 2.498 2.498 0 0 0-.091-.028 5.266 5.266 0 0 0-.177-.055c-.066-.019-.12-.097-.163-.234a1.498 1.498 0 0 1-.06-.441c0-.164.021-.304.062-.42.045-.13.11-.207.197-.233a.078.078 0 0 1 .016-.001c.009 0 .02.003.033.01.014.006.023.008.03.006a.43.43 0 0 1 .12-.016.74.74 0 0 1 .17.024c.099.025.155.038.166.04Zm-.25.106c-.064 0-.114.06-.15.178a1.22 1.22 0 0 0-.041.335c0 .102.014.21.042.327.027.117.055.176.081.176.052 0 .094-.068.127-.202.028-.119.042-.257.042-.413 0-.114-.008-.208-.024-.28-.019-.081-.044-.121-.078-.121ZM45 24.278c.003.032-.018.054-.062.067a.251.251 0 0 0-.063.002c-.02 0-.083.016-.188.048a1.592 1.592 0 0 0-.263.093.165.165 0 0 0-.043.03c-.012.013-.02.02-.024.02-.016.001-.064-.027-.144-.087a1.126 1.126 0 0 1-.066-.043c-.022-.015-.034-.033-.035-.054 0-.008.048-.08.144-.217.119-.167.21-.307.276-.42.1-.176.154-.317.162-.42a.637.637 0 0 0-.259.237c-.006.006-.01.016-.012.031s-.005.025-.01.03a.057.057 0 0 1-.047.022.252.252 0 0 1-.133-.053l-.066-.036c-.027-.014-.04-.027-.042-.038-.002-.025.026-.074.083-.147.062-.077.13-.143.206-.197a.42.42 0 0 1 .239-.099c.026 0 .051.009.075.026s.047.034.069.052c.09.062.146.12.17.175a.117.117 0 0 1 .007.043c0 .077-.04.202-.122.376a2.62 2.62 0 0 1-.25.428c.035-.01.083-.027.143-.05a.3.3 0 0 0 .035-.022.046.046 0 0 1 .032-.01c.026.003.064.034.112.093s.073.099.075.12ZM46.005 23.148c.065.012.117.07.155.172.034.096.051.214.051.357 0 .165-.027.328-.08.488-.079.23-.193.346-.342.346a.325.325 0 0 1-.087-.015 2.498 2.498 0 0 0-.092-.028 5.266 5.266 0 0 0-.176-.055c-.066-.019-.12-.097-.163-.234a1.498 1.498 0 0 1-.06-.441c0-.164.021-.304.062-.42.045-.13.11-.207.196-.233a.078.078 0 0 1 .016-.001c.01 0 .02.003.034.01.013.006.023.008.03.006a.43.43 0 0 1 .119-.016.74.74 0 0 1 .17.024c.1.025.155.038.167.04Zm-.25.106c-.063 0-.113.06-.149.178a1.22 1.22 0 0 0-.041.335c0 .102.014.21.041.327.028.117.055.176.082.176.051 0 .094-.068.127-.202.027-.119.041-.257.041-.413 0-.114-.008-.208-.024-.28-.018-.081-.044-.121-.077-.121Z"/>
      </g>
      <path d="M21.463 10.447c.245 0 .368.126.598.336.02.019.11.23.18.412.076.203.038.528.035.654-.007.372-.3 1.002-.242 1.119.058.117.713-.116 1.195-.036.482.08.825 1.312.872 1.46.048.148.292 1.09.526 1.31.234.219.156.467.054.664-.091.175-.414.158-.484.152l-.014-.001-.818 1.233s-.278.392.07 1.114c.432.894.473 4.291.425 4.88-.005.061-.008.13-.009.206v.255a9.854 9.854 0 0 1-.214 2.285c-.107.493-.342.98-.327 1.2.014.218.588.697 1.25.738.33.021 1.926.207 3.58.424l.62.082c1.442.195 2.813.4 3.301.527 1.116.29 4.32.909 4.567 1.094.248.186 0 1.487-.269 1.673-.268.186-5.662-.268-6.179-.289-.267-.01-1.585-.126-2.955-.25l-.548-.05c-1.093-.098-2.135-.194-2.614-.237-.526-.047-2.123-.296-3.803-.591l-.674-.12-.536-.099c-1.595-.295-3.047-.598-3.48-.77 0 0 .163 1.024.094 1.94-.077 1.03-.856 1.98-.97 2.242-.217.496-.64.92-1.25.692-.61-.227-2.08-.82-1.79-1.388.166-.326.875-2.186 1.706-2.996.614-.599 1.392-.547 1.559-.727-.403-.031-2.986-1.25-3.575-1.621-.59-.372-.031-.403.29-.589.32-.186 2.303-.454 2.49-.423.176.03 2.067.374 2.266.41l.017.003 2.903-4.203s-.03 0-.082-.103c-.052-.103-.093-.413-.062-.754.03-.34.085-1.01-.018-1.237-.104-.227-.181-1.095-.195-1.407-.012-.258.047-1.053.078-1.259.031-.207.128-2.133.17-3.135.039-.943 1.014-1.707 1.559-1.966l.097-.042-.125-.194c-.1-.1-.281-.462-.343-.867-.047-.304-.096-.69.018-.976.141-.355.427-.775 1.056-.775Zm.24 10.12c-.051.703-.194 1.43-.162 1.637.03.207-.075 1.705-.187 2.024-.086.246-.496 1.726-.878 2.644-.144.32-.268 1.084-.268 1.084.289.124 2.352.383 2.343.237-.034-.568.021-1.005-.034-1.303-.025-.132-.178-1.281-.104-1.636a5.775 5.775 0 0 0 .107-1.125c-.035-.2-.31-1.276-.388-1.65l-.118-.574-.063-.31c-.106-.515-.209-.988-.248-1.027ZM19.897 23.3c-.075.013-.234-.001-.312.076l-2.63 3.943.018.003.13.025c.186.036.526.102.888.17l.364.067c.482.088.926.164 1.018.164 0-1.007-.302-1.75.444-3.36.236-.507.08-1.088.08-1.088Zm.391-6.787-.006.096c-.02.254-.048.509-.052.558-.005.058-.035.739-.035.82 0 .083-.04.501-.055.674-.015.16-.072.598-.082.75-.003.046-.04.572-.04.595 0 .024-.015.476-.02.573-.002.07-.026.569-.026.592 0 .024-.023.205.003.345.014.078.126.334.173.38l.14-5.383Zm2.737-.67c-.03.074-.118.229-.118.301 0 .073.044.22.07.329.026.109.13.758.115.831-.016.073.642-.837.584-.868-.057-.03-.241-.095-.263-.205-.021-.112-.046-.244.047-.248.094-.003-.317-.688-.32-.7-.029-.115-.018.317-.115.56ZM20.1 4.629c.163 0 .295.177.295.394 0 .19-.101.35-.236.386l-.059.008c-.162 0-.294-.176-.294-.394 0-.217.132-.394.294-.394Z" fill="#000" fill-rule="nonzero"/>
    </g>
  </g>
</svg>
